<?xml version="1.0" encoding="UTF-8"?>
<svg width="13px" height="16px" viewBox="0 0 13 16" version="1.1" xmlns="http://www.w3.org/2000/svg" xmlns:xlink="http://www.w3.org/1999/xlink">
    <!-- Generator: Sketch 64 (93537) - https://sketch.com -->
    <title>当前定位</title>
    <desc>Created with Sketch.</desc>
    <g id="页面-1" stroke="none" stroke-width="1" fill="none" fill-rule="evenodd">
        <g id="切换城市" transform="translate(-16.000000, -142.000000)" fill="#EE4844" fill-rule="nonzero">
            <g id="当前城市" transform="translate(0.000000, 96.000000)">
                <g id="当前定位" transform="translate(16.000000, 46.000000)">
                    <path d="M6.27173033,5.05794829 C5.35244355,5.05794829 4.65447186,5.7738216 4.65447186,6.71667493 C4.65447186,7.65953317 5.35244833,8.37540156 6.27173033,8.37540156 C7.19101711,8.37540156 7.8889888,7.65952825 7.8889888,6.71667493 C7.8889888,5.77381669 7.19101233,5.05794829 6.27173033,5.05794829 L6.27173033,5.05794829 Z" id="路径"></path>
                    <path d="M12.051331,4.12381477 C11.7363907,3.33809957 11.2852587,2.69206652 10.6979366,2.13333626 C10.1106145,1.574606 9.48073227,1.1119065 8.71465516,0.788890796 C7.94858284,0.465875093 7.13143903,0.282541546 6.28025288,0.282541546 C5.42054897,0.282541546 4.61192293,0.422224194 3.84585061,0.788890796 C3.07977829,1.1119065 2.39882458,1.574606 1.86256917,2.13333626 C1.32631855,2.69206652 0.815603668,3.38175096 0.492150379,4.12381477 C0.177210068,4.90952997 -0.00154013986,5.74762618 -0.00154013986,6.57699768 C-0.00154013986,7.82541238 0.313400171,8.98652429 0.858163773,10.1825629 C1.30929578,11.1079602 1.9391764,12.0333641 2.75631542,12.9151003 C4.10970986,14.3992295 5.55674067,15.3246269 5.95679002,15.5516168 C6.05042113,15.6476487 6.22917182,15.6476487 6.31429043,15.6476487 C6.45048102,15.6476487 6.58667224,15.6039978 6.67179085,15.5516168 C7.08036275,15.3159022 8.51887101,14.3905048 9.87226545,12.9151003 C10.6383378,12.0333527 11.3192915,11.1079553 11.7704171,10.1825629 C12.3151791,9.02145097 12.630121,7.77303627 12.630121,6.57699768 C12.5450019,5.74763109 12.4088107,4.90952997 12.0513103,4.12381477 L12.051331,4.12381477 Z M6.27174629,9.77223949 C4.60341633,9.77223949 3.29257084,8.42779403 3.29257084,6.71667493 C3.29257084,5.00556728 4.60340516,3.66111036 6.27174629,3.66111036 C7.94007624,3.66111036 9.25092174,5.00555582 9.25092174,6.71667493 C9.25092174,8.42778257 7.94008742,9.77223949 6.27174629,9.77223949 L6.27174629,9.77223949 Z" id="形状"></path>
                </g>
            </g>
        </g>
    </g>
</svg>