<?xml version="1.0" encoding="UTF-8"?>
<svg width="19px" height="19px" viewBox="0 0 19 19" version="1.1" xmlns="http://www.w3.org/2000/svg" xmlns:xlink="http://www.w3.org/1999/xlink">
    <!-- Generator: Sketch 64 (93537) - https://sketch.com -->
    <title>地图</title>
    <desc>Created with Sketch.</desc>
    <g id="页面-1" stroke="none" stroke-width="1" fill="none" fill-rule="evenodd">
        <g id="搜索页面-搜索成功" transform="translate(-16.000000, -295.000000)" fill="#BBBBBB" fill-rule="nonzero">
            <g id="-mockplus-dup-|FA311AD5-1CBE-4003-B6FA-7B44202437D1|列表/搜索结果-楼盘备份-3" transform="translate(16.000000, 292.000000)">
                <g id="列表/搜索结果-楼盘备份-3">
                    <g id="列表">
                        <g id="地图" transform="translate(0.007407, 3.007407)">
                            <path d="M16.6529829,13.9551898 L16.652983,13.9551926 C16.653106,14.0182006 16.6176576,14.0758826 16.5613889,14.1042352 L11.8069613,16.5289036 L11.8069613,16.5289036 C11.7585644,16.553818 11.701046,16.5535072 11.6529213,16.5280709 L6.45551701,13.7720046 L6.45551701,13.7720046 C6.0241867,13.5432113 5.50844779,13.5388618 5.07331949,13.7603475 L1.33223866,15.6621165 L1.33223866,8.01673896 L2.69528543,7.36727256 L2.69528542,7.36727257 C3.02753421,7.20908101 3.1686338,6.81150009 3.01044325,6.47925334 C2.85225169,6.14700456 2.45467077,6.00590497 2.12242403,6.16409551 L0.473779016,6.94928407 L0.473778969,6.94928409 C0.18385355,7.08776416 -0.000528058589,7.38069989 6.39488462e-14,7.70199841 L6.39488462e-14,16.4781225 L6.39488462e-14,16.4781184 C0.000693241309,16.9379764 0.374044082,17.3102059 0.833902059,17.3095138 C0.964565318,17.3093172 1.0933479,17.2783726 1.20983586,17.2191825 L5.67782667,14.9485506 L5.67782665,14.9485506 C5.72613399,14.9241846 5.78326768,14.9248056 5.83103401,14.9502159 L11.0292524,17.7062822 L11.0292523,17.7062821 C11.4608533,17.9345502 11.9765922,17.938279 12.4114498,17.7162741 L17.1675464,15.2916057 L17.1675464,15.2916057 C17.6692332,15.0356627 17.9852072,14.5200704 17.9852072,13.9568688 L17.9852072,5.89515755 L17.9852072,5.89517784 C17.9852072,5.43531783 17.612418,5.06252866 17.152558,5.06252866 C17.0598911,5.06252866 16.9678741,5.07799751 16.8803016,5.10829749 L15.3815326,5.62703855 L15.3815326,5.62703856 C15.0352378,5.75122163 14.8551813,6.13261896 14.979365,6.47891379 C15.1015681,6.81968668 15.4735636,7.00047383 15.817011,6.88600292 L16.65299,6.59624032 L16.65299,13.9552014 L16.6529829,13.9551898 Z" id="路径"></path>
                            <path d="M10.1807894,13.0892441 C12.8802318,9.57795584 14.2382879,7.00092015 14.2382879,5.24568312 L14.2382879,5.24568312 C14.2382879,2.34856606 11.8897219,-4.4408921e-15 8.99260479,-4.4408921e-15 C6.09548773,-4.4408921e-15 3.74692167,2.34856606 3.74692167,5.24568312 C3.74692167,7.00090794 5.10497163,9.57795584 7.80442023,13.0892441 L7.80442023,13.0892441 C8.3089402,13.7454638 9.24990739,13.8684385 9.90611696,13.3639185 C10.0092029,13.284663 10.1015363,13.1923296 10.1807914,13.0892441 L10.1807894,13.0892441 Z M9.12499099,12.2765781 L9.12499098,12.2765781 C9.06920002,12.3496957 8.96469893,12.3637417 8.89158152,12.3079508 C8.87977148,12.2989393 8.8692204,12.2883882 8.86020882,12.2765781 C6.33395547,8.9909507 5.07915344,6.60957457 5.07915344,5.24569737 L5.07915344,5.24569796 C5.07915344,3.08436506 6.83126415,1.33224213 8.99260927,1.33224213 C11.1539422,1.33224213 12.9060651,3.08435285 12.9060651,5.24569796 C12.9060651,5.24569796 12.9060651,5.24569796 12.9060651,5.24569796 C12.9060651,6.6095772 11.6512631,8.99095129 9.12500971,12.2765787 L9.12499099,12.2765781 Z" id="形状"></path>
                            <path d="M8.99260479,7.94679461 L8.9926047,7.94679461 C10.4843883,7.94691614 11.693818,6.73768446 11.6939401,5.24590701 C11.6940616,3.75412345 10.4848299,2.54469375 8.99305248,2.54457162 C8.99290585,2.54457162 8.99275921,2.54457162 8.99261257,2.54457162 L8.99261249,2.54457162 C7.50082892,2.54469315 6.29160276,3.75412141 6.29172489,5.24590701 C6.2918464,6.7375196 7.501006,7.94667249 8.99261249,7.94679461 L8.99260479,7.94679461 Z M8.99260479,6.61455714 L8.99260473,6.61455714 C8.23659515,6.61455714 7.62373071,6.00169066 7.62373071,5.24568312 C7.62373071,4.48967354 8.23659719,3.8768091 8.99260473,3.8768091 L8.99260467,3.8768091 C9.74861425,3.8768091 10.3614787,4.48967558 10.3614787,5.24568312 C10.3614787,6.0016927 9.74861221,6.61455714 8.99260467,6.61455714 L8.99260479,6.61455714 Z" id="形状"></path>
                        </g>
                    </g>
                </g>
            </g>
        </g>
    </g>
</svg>