<?xml version="1.0" encoding="UTF-8"?>
<svg width="18px" height="18px" viewBox="0 0 18 18" version="1.1" xmlns="http://www.w3.org/2000/svg" xmlns:xlink="http://www.w3.org/1999/xlink">
    <!-- Generator: Sketch 64 (93537) - https://sketch.com -->
    <title>楼盘</title>
    <desc>Created with Sketch.</desc>
    <g id="页面-1" stroke="none" stroke-width="1" fill="none" fill-rule="evenodd">
        <g id="搜索页面-搜索成功" transform="translate(-16.000000, -115.000000)" fill="#BBBBBB" fill-rule="nonzero">
            <g id="列表/搜索结果-楼盘" transform="translate(16.000000, 112.000000)">
                <g id="列表">
                    <g id="楼盘" transform="translate(0.000000, 4.000000)">
                        <path d="M17.3630596,14.3787395 L16.764414,14.3787395 L16.764414,5.99770169 L16.764414,5.99769994 C16.7600866,4.67656587 15.6898412,3.60682541 14.3687087,3.60311772 L10.7768354,3.60311772 L10.7768354,2.40470199 L10.7768354,2.40471904 C10.7719047,1.0844619 9.70252882,0.0155675798 8.3822686,0.0112445069 L3.5919657,0.0112445069 L3.5919658,0.0112445069 C2.27126866,0.0155675487 1.20170666,1.08512959 1.19738358,2.40582673 L1.19738358,14.3798609 L0.598738028,14.3798609 L0.598738003,14.3798609 C0.271236792,14.376744 0.00321859828,14.6397083 7.48232249e-05,14.9672096 C7.48232249e-05,14.9706 7.48232249e-05,14.9739907 7.48232249e-05,14.9773812 C7.48232249e-05,15.311587 0.263405693,15.5771789 0.598737666,15.5771789 L17.3619517,15.5771789 L17.3619517,15.5771789 C17.6900744,15.5802736 17.9586003,15.3168086 17.9617495,14.9886874 C17.9617495,14.9849186 17.9617495,14.9811496 17.9617495,14.9773809 L17.9617495,14.9773788 C17.9648495,14.6498776 17.7018929,14.3818517 17.3743932,14.378724 C17.3702454,14.3786844 17.3660972,14.3786883 17.3619494,14.3787357 L17.3630596,14.3787395 Z M9.57729812,3.6019964 L9.57729812,14.3787395 L2.39467453,14.3787395 L2.39467453,2.40582836 C2.39467453,1.74641825 2.93368014,1.20741264 3.59196564,1.20741264 L8.38337623,1.20741264 C9.04166173,1.20741264 9.57954273,1.74754441 9.57954273,2.40470375 L9.57954273,3.60199486 L9.57729812,3.6019964 Z M15.5648767,14.3787395 L10.7768354,14.3787395 L10.7768354,4.80041058 L14.3687087,4.80041058 C15.0269942,4.80041058 15.5659998,5.33829158 15.5659998,5.99657708 L15.5659998,14.379861 L15.5648767,14.3787395 Z M7.7836076,3.6019964 L4.19173427,3.6019964 L4.19173426,3.6019964 C3.86424074,3.59825263 3.59571947,3.86070383 3.59193611,4.18819889 C3.59193611,4.19234667 3.59193611,4.19649483 3.59193611,4.20064269 C3.59193611,4.53597466 3.85527676,4.79928825 4.19060873,4.79928825 L7.78248206,4.79928825 L7.78248208,4.79928825 C8.10935406,4.80303858 8.37737687,4.5410962 8.38116727,4.21422422 C8.38116727,4.2096973 8.38116727,4.20516995 8.38116727,4.20064303 L8.38116727,4.20064207 C8.38487092,3.87377009 8.12292329,3.6057519 7.79604977,3.60200882 C7.79190195,3.60195684 7.78775375,3.60195684 7.78360583,3.60199714 L7.7836076,3.6019964 Z M7.7836076,7.19386973 L4.19173427,7.19386973 L4.19173424,7.19386973 C3.86424072,7.19011944 3.5957133,7.45256485 3.59192519,7.78005991 C3.59192519,7.78458677 3.59192519,7.78911409 3.59192519,7.79364094 C3.59192519,8.12784676 3.85527766,8.3922865 4.19060963,8.3922865 L7.78248296,8.3922865 L7.78248298,8.3922865 C8.10998419,8.39540873 8.378007,8.1324483 8.38112854,7.80494709 C8.38118242,7.80117831 8.38118242,7.79740925 8.38112853,7.79364047 L8.38112854,7.79364045 C8.38549387,7.46677617 8.12405648,7.19826105 7.7971922,7.1938949 C7.79266468,7.19383003 7.78813661,7.19383003 7.78360889,7.19386937 L7.7836076,7.19386973 Z M7.7836076,10.7868661 L4.19173427,10.7868661 L4.19173425,10.7868661 C3.86486227,10.7831223 3.59684408,11.0450705 3.59306219,11.3719425 C3.59306219,11.3760903 3.59306219,11.3802385 3.59306219,11.3843864 C3.59306219,11.720843 3.85640288,11.9841566 4.19173486,11.9841566 L7.78360819,11.9841566 L7.7836082,11.9841566 C8.11110941,11.9872853 8.37913683,11.7243307 8.38229312,11.3968295 C8.38229312,11.3926816 8.38229312,11.3885335 8.38229312,11.3843857 L8.38229312,11.3843834 C8.38476041,11.0574991 8.12179927,10.7904748 7.79491498,10.7879686 C7.79114539,10.7879397 7.78737559,10.7879468 7.78360612,10.7879899 L7.7836076,10.7868661 Z M13.7700632,7.19386973 L12.572772,7.19386973 L12.572772,7.19386973 C12.2452708,7.19074749 11.977248,7.45370793 11.9741265,7.78120914 C11.9740995,7.78497792 11.9740995,7.78874698 11.9741265,7.79251576 L11.9741265,7.79251632 C11.9716314,8.12064368 12.2356093,8.38866649 12.5637367,8.39116187 C12.5667488,8.39118938 12.5697611,8.39118938 12.5727732,8.39116187 L13.7700643,8.39116187 L13.7700643,8.39116187 C14.0975655,8.39428409 14.3655883,8.13132366 14.3687099,7.80382245 C14.3687495,7.80005367 14.3687495,7.79628461 14.3687099,7.79251583 L14.3687099,7.79251487 C14.3724532,7.46564289 14.1105055,7.1976247 13.783632,7.19388163 C13.7794842,7.19384221 13.775336,7.19383023 13.7711881,7.19386994 L13.7700632,7.19386973 Z M13.7700632,10.7868661 L12.572772,10.7868661 L12.572772,10.7868661 C12.2452708,10.7837492 11.9772526,11.0467136 11.9741357,11.3742148 C11.9741088,11.3776052 11.9741088,11.3809959 11.9741088,11.3843864 C11.9741088,11.720843 12.2374397,11.9841565 12.5727717,11.9841565 L13.7700628,11.9841565 L13.7700628,11.9841565 C14.097564,11.9872853 14.3655914,11.7243306 14.3687207,11.3968294 C14.3687477,11.3926816 14.3687477,11.3885334 14.368709,11.3843856 L14.368709,11.3843859 C14.3712099,11.0575016 14.1082446,10.7904819 13.7813603,10.7879804 C13.7779698,10.7879544 13.7745791,10.7879576 13.7711886,10.78799 L13.7700632,10.7868661 Z" id="形状"></path>
                    </g>
                </g>
            </g>
        </g>
    </g>
</svg>