<?xml version="1.0" encoding="UTF-8"?>
<svg width="20px" height="15px" viewBox="0 0 20 15" version="1.1" xmlns="http://www.w3.org/2000/svg" xmlns:xlink="http://www.w3.org/1999/xlink">
    <!-- Generator: Sketch 64 (93537) - https://sketch.com -->
    <title>VS</title>
    <desc>Created with Sketch.</desc>
    <defs>
        <linearGradient x1="100%" y1="24.4897959%" x2="50%" y2="75.5102041%" id="linearGradient-1">
            <stop stop-color="#FD8E85" offset="0%"></stop>
            <stop stop-color="#FF6C68" offset="100%"></stop>
        </linearGradient>
    </defs>
    <g id="页面-1" stroke="none" stroke-width="1" fill="none" fill-rule="evenodd">
        <g id="竞媒比对-初始界面" transform="translate(-28.000000, -724.000000)" fill="url(#linearGradient-1)">
            <g id="底部默认" transform="translate(0.000000, 675.000000)">
                <g id="数据">
                    <path d="M44.4804469,54.5404671 L42.8603352,53.9972841 C41.9664804,53.7256926 41.5195531,53.5084193 41.5195531,52.8565997 C41.5195531,52.2590983 42.0782123,52.0961434 43.027933,52.0961434 C44.3687151,52.1504617 45.6536313,52.4763715 46.8268156,53.0738729 L47.6089385,49.9777295 C46.2122905,49.3802281 44.6480447,49.0543183 43.1396648,49 L39.396648,56.658881 C39.8435754,56.9304726 40.3463687,57.1477458 40.849162,57.3107007 L42.5810056,57.9082021 C43.4748603,58.1797936 43.9776536,58.5057034 43.9776536,59.1575231 C43.9776536,59.8093427 43.4189944,60.1895709 42.4134078,60.026616 C41.0167598,59.7550244 39.6759777,59.320478 38.4469274,58.61434 L36.8826816,61.7104834 C38.6145251,62.6882129 40.5698324,63.231396 42.5810056,63.2857143 C45.9329609,63.2857143 48,61.4932102 48,58.5600217 C48,56.4959261 46.9385475,55.40956 44.4804469,54.5404671 L44.4804469,54.5404671 Z M41.9664804,49 L35.2494988,62.6506633 C35.1890975,62.7734146 35.0641814,62.8511678 34.9273743,62.8511678 C34.7907177,62.8511678 34.6660929,62.7730315 34.6065582,62.6500248 L28,49 L28,49 L32.7486034,49 L34.9832402,53.9429658 L37.273743,49 L41.9664804,49 Z" id="VS"></path>
                </g>
            </g>
        </g>
    </g>
</svg>