<svg width="12" height="14" xmlns="http://www.w3.org/2000/svg" xmlns:xlink="http://www.w3.org/1999/xlink"><defs><path id="a" d="M0 0h11.968v13.95H0z"/></defs><g fill="none" fill-rule="evenodd"><mask id="b" fill="#fff"><use xlink:href="#a"/></mask><path d="M5.944 8.615c-1.581 0-2.823-1.22-2.823-2.774 0-1.553 1.242-2.774 2.823-2.774 1.58 0 2.822 1.22 2.822 2.774S7.524 8.615 5.944 8.615m5.475-5.128a5.026 5.026 0 00-1.282-1.807C9.581 1.173 8.984.753 8.258.46A6.133 6.133 0 005.952 0C5.137 0 4.37.127 3.645.46a5.667 5.667 0 00-1.879 1.22C1.258 2.187.774 2.814.468 3.487A5.807 5.807 0 000 5.714c0 1.134.298 2.188.815 3.274.427.84 1.024 1.68 1.798 2.48 1.282 1.348 2.653 2.188 3.032 2.394.089.087.258.087.339.087.129 0 .258-.04.339-.087.387-.214 1.75-1.054 3.032-2.394.726-.8 1.37-1.64 1.798-2.48.516-1.054.815-2.188.815-3.274-.08-.753-.21-1.513-.549-2.227" fill="#FFF" mask="url(#b)"/></g></svg>