<svg width="16" height="16" xmlns="http://www.w3.org/2000/svg"><path d="M15.714.535a.817.817 0 00-.483-.21L11.066.003a.835.835 0 00-.886.781.842.842 0 00.761.909l2.197.17-2.785 2.887a6.158 6.158 0 00-2.677-1.402C4.318 2.542.95 4.69.166 8.13c-.785 3.441 1.308 6.895 4.665 7.699 3.358.803 6.727-1.342 7.51-4.783a6.522 6.522 0 00-.83-4.921l2.661-2.758-.157 2.008a.844.844 0 00.758.912.835.835 0 00.89-.777l.334-4.267a.86.86 0 00-.283-.707zm-5.17 10.079c-.553 2.424-2.926 3.937-5.292 3.37-2.365-.567-3.84-3-3.287-5.424.552-2.423 2.925-3.935 5.291-3.369 2.365.566 3.84 2.999 3.287 5.423z" fill="#09F"/></svg>