<?xml version="1.0" encoding="UTF-8"?>
<svg width="217px" height="176px" viewBox="0 0 217 176" version="1.1" xmlns="http://www.w3.org/2000/svg" xmlns:xlink="http://www.w3.org/1999/xlink">
    <title>数据为空</title>
    <defs>
        <linearGradient x1="49.9944184%" y1="100%" x2="49.9944184%" y2="0%" id="linearGradient-1">
            <stop stop-color="#808080" stop-opacity="0.25" offset="0%"></stop>
            <stop stop-color="#808080" stop-opacity="0.12" offset="54%"></stop>
            <stop stop-color="#808080" stop-opacity="0.1" offset="100%"></stop>
        </linearGradient>
        <linearGradient x1="49.9936241%" y1="100.004506%" x2="49.9936241%" y2="1.2807187e-14%" id="linearGradient-2">
            <stop stop-color="#808080" stop-opacity="0.25" offset="0%"></stop>
            <stop stop-color="#808080" stop-opacity="0.12" offset="54%"></stop>
            <stop stop-color="#808080" stop-opacity="0.1" offset="100%"></stop>
        </linearGradient>
        <linearGradient x1="50.0026011%" y1="100%" x2="50.0026011%" y2="-0.0182621717%" id="linearGradient-3">
            <stop stop-color="#808080" stop-opacity="0.25" offset="0%"></stop>
            <stop stop-color="#808080" stop-opacity="0.12" offset="54%"></stop>
            <stop stop-color="#808080" stop-opacity="0.1" offset="100%"></stop>
        </linearGradient>
        <linearGradient x1="49.9975438%" y1="100%" x2="49.9975438%" y2="0%" id="linearGradient-4">
            <stop stop-color="#808080" stop-opacity="0.25" offset="0%"></stop>
            <stop stop-color="#808080" stop-opacity="0.12" offset="54%"></stop>
            <stop stop-color="#808080" stop-opacity="0.1" offset="100%"></stop>
        </linearGradient>
        <linearGradient x1="50.0024608%" y1="99.9961641%" x2="50.0024608%" y2="0.00165012633%" id="linearGradient-5">
            <stop stop-color="#808080" stop-opacity="0.25" offset="0%"></stop>
            <stop stop-color="#808080" stop-opacity="0.12" offset="54%"></stop>
            <stop stop-color="#808080" stop-opacity="0.1" offset="100%"></stop>
        </linearGradient>
        <linearGradient x1="50%" y1="100.025363%" x2="50%" y2="0%" id="linearGradient-6">
            <stop stop-color="#808080" stop-opacity="0.25" offset="0%"></stop>
            <stop stop-color="#808080" stop-opacity="0.12" offset="54%"></stop>
            <stop stop-color="#808080" stop-opacity="0.1" offset="100%"></stop>
        </linearGradient>
        <linearGradient x1="49.9693811%" y1="100.000101%" x2="49.9693811%" y2="-0.0172476432%" id="linearGradient-7">
            <stop stop-color="#808080" stop-opacity="0.25" offset="0%"></stop>
            <stop stop-color="#808080" stop-opacity="0.12" offset="54%"></stop>
            <stop stop-color="#808080" stop-opacity="0.1" offset="100%"></stop>
        </linearGradient>
    </defs>
    <g id="页面-1" stroke="none" stroke-width="1" fill="none" fill-rule="evenodd">
        <g id="搜索页面-搜索结果为空" transform="translate(-79.000000, -216.000000)">
            <g id="数据为空" transform="translate(79.000000, 216.000000)">
                <ellipse id="椭圆形" fill="#129CFF" opacity="0.1" cx="131.5" cy="172" rx="22.5" ry="4"></ellipse>
                <path d="M129.95372,21.635686 C120.900383,29.2647009 109.15462,28.7717112 98.8729408,24.8031445 C88.5912619,20.8345778 79.1202062,13.7663386 69.094949,8.74400649 C60.8889345,4.59634031 52.0495516,1.82361068 42.9337424,0.537782846 C30.1560889,-1.22260105 15.883332,0.921903952 6.97888528,13.2548618 C-2.9367724,26.988732 -2.17371136,51.7594081 8.55050151,64.3737809 C14.0056642,70.7867546 21.1482464,73.9336719 27.3788776,78.9416252 C33.6095088,83.9495784 39.3727909,92.2626165 38.8434044,101.927268 C38.3533083,110.87503 32.6396561,117.744019 26.7336877,122.057679 C22.1656611,125.385359 16.5409293,129.021158 15.980524,135.91685 C15.4470017,142.588644 20.1763258,147.816388 24.6947225,150.790759 C39.4265567,160.490331 57.5745884,160.395841 72.2567927,150.546319 C77.4948242,147.031713 82.3068649,142.358582 87.7992501,139.618381 C102.216761,132.428949 118.106628,139.665626 133.371985,142.313391 C146.294393,144.55444 159.545599,143.39386 172.135072,138.917925 C179.695373,136.231131 187.284626,132.122884 192.597102,124.46922 C196.426883,118.94979 198.813258,111.963716 201.052811,105.065969 C203.443322,97.7094675 205.740087,90.3016132 207.943107,82.8424058 C209.264506,78.3644165 210.567293,73.8042621 210.908499,69.0099377 C211.528874,60.3271574 208.919164,51.7552998 205.368552,44.4179704 C196.94593,27.0072191 182.74555,14.7749133 167.374729,11.6670243 C152.003909,8.55913537 135.717002,14.6290705 123.789262,27.9089793" id="路径" fill="#EB4944" opacity="0.149479167"></path>
                <g id="分组" opacity="0.35" transform="translate(70.000000, 41.000000)" fill="#FD5B38">
                    <path d="M34.6273705,1.47974522 L34.6273705,0.0819745223 L12.4982869,0.0819745223 C11.4805179,0.0819745223 12.1013147,1.48815287 12.1013147,1.48815287 L0.07812749,1.48815287 L0.07812749,32.8381529 L52.8669721,32.8381529 L52.8669721,1.47974522 L34.6273705,1.47974522 Z" id="路径" opacity="0.2"></path>
                </g>
                <path d="M172,64 C172,64 178.403574,52.8194362 188.05466,49.5986647 C192.108468,48.2728504 195.616319,45.6863533 198.051226,42.2277448 C199.194631,40.5779164 200.18171,38.8279695 201,37" id="路径" stroke="#535461" stroke-width="2"></path>
                <path d="M208.04575,34.4952832 C206.801569,35.7265344 201,37 201,37 C201,37 202.421592,31.1368989 203.668077,29.9033024 C204.91384,28.6728239 206.903706,28.7032739 208.112567,29.9713144 C209.321428,31.2393548 209.291513,33.2648047 208.04575,34.4952832 L208.04575,34.4952832 Z" id="路径" fill="#FF5757"></path>
                <path d="M206.412971,44.9646364 C204.67276,45.2891231 199,43.273774 199,43.273774 C199,43.273774 203.422351,39.3821417 205.162562,39.057655 C206.288216,38.848275 207.447526,39.217732 208.203792,40.0268552 C208.960058,40.8359784 209.198385,41.9618427 208.828997,42.980346 C208.459609,43.9988492 207.538625,44.7552564 206.412971,44.9646364 L206.412971,44.9646364 Z" id="路径" fill="#FF5757"></path>
                <path d="M194.501683,54.8338799 C193.126062,54.2901955 190,49.8611572 190,49.8611572 C190,49.8611572 194.851385,48.5903503 196.227007,49.1362447 C197.116747,49.4887977 197.774478,50.3575516 197.95244,51.4152553 C198.130401,52.4729591 197.801556,53.5589223 197.089778,54.264073 C196.377999,54.9692238 195.391423,55.1864329 194.501683,54.8338799 L194.501683,54.8338799 Z" id="路径" fill="#FF5757"></path>
                <path d="M186.278461,60.9530383 C184.535877,60.6861963 180,56.9371758 180,56.9371758 C180,56.9371758 185.577206,54.7539227 187.322134,55.0229701 C188.449958,55.1982734 189.392648,55.9260231 189.795103,56.932083 C190.197557,57.9381429 189.998634,59.0696685 189.273266,59.9004251 C188.547897,60.7311817 187.406284,61.1349576 186.278461,60.9596543 L186.278461,60.9530383 Z" id="路径" fill="#FF5757"></path>
                <path d="M195.001103,38.2280209 C195.001103,39.9653711 197.996703,45 197.996703,45 C197.996703,45 200.998897,39.9676753 200.998897,38.2303251 C201.028428,37.08677 200.463388,36.016579 199.523377,35.4356767 C198.583367,34.8547744 197.416633,34.8547744 196.476623,35.4356767 C195.536612,36.016579 194.971572,37.08677 195.001103,38.2303251 L195.001103,38.2280209 Z" id="路径" fill="#FF5757"></path>
                <path d="M184.175638,46.4632667 C184.669897,47.8223964 188.964461,51 188.964461,51 C188.964461,51 190.390124,46.2874683 189.895865,44.9283386 C189.617141,44.0078297 188.772077,43.2941546 187.69732,43.0716211 C186.622564,42.8490875 185.492725,43.1538492 184.7579,43.8644979 C184.023074,44.5751465 183.802645,45.576227 184.184425,46.4689376 L184.175638,46.4632667 Z" id="路径" fill="#FF5757"></path>
                <path d="M172.04784,54.7433396 C172.267344,56.4547 175.875978,61 175.875978,61 C175.875978,61 178.204908,55.6230751 177.985404,53.9117146 C177.908446,52.7489371 177.218294,51.7273202 176.194788,51.2611038 C175.171281,50.7948875 173.984287,50.9614477 173.115102,51.6932485 C172.245917,52.4250493 171.838796,53.6006367 172.058816,54.7433396 L172.04784,54.7433396 Z" id="路径" fill="#FD5B38"></path>
                <path d="M172.04784,54.7433396 C172.267344,56.4547 175.875978,61 175.875978,61 C175.875978,61 178.204908,55.6230751 177.985404,53.9117146 C177.908446,52.7489371 177.218294,51.7273202 176.194788,51.2611038 C175.171281,50.7948875 173.984287,50.9614477 173.115102,51.6932485 C172.245917,52.4250493 171.838796,53.6006367 172.058816,54.7433396 L172.04784,54.7433396 Z" id="路径" fill="#000000" opacity="0.25"></path>
                <path d="M174,64 C174,64 175.305514,50.9616128 183.083676,44.0275614 C186.369666,41.1398859 188.597401,37.2979447 189.431688,33.0798122 C189.81348,31.074361 190.003701,29.0391763 190,27" id="路径" stroke="#535461" stroke-width="2"></path>
                <path d="M193.782042,22.6680953 C193.160657,24.0364767 188.572989,27 188.572989,27 C188.572989,27 187.583622,22.0386398 188.205006,20.6702584 C188.606494,19.7864411 189.508973,19.1597805 190.572487,19.0263335 C191.636002,18.8928865 192.698979,19.2729269 193.361005,20.0232971 C194.023032,20.7736674 194.18353,21.7803684 193.782042,22.6641856 L193.782042,22.6680953 Z" id="路径" fill="#EB4944"></path>
                <path d="M194.770303,31.8705306 C193.462114,32.7230345 188,33 188,33 C188,33 190.123683,28.3387289 191.43612,27.4881893 C192.282471,26.937296 193.382277,26.8458843 194.321253,27.2483882 C195.260228,27.6508922 195.89572,28.4861617 195.988344,29.439559 C196.080969,30.3929562 195.616654,31.3196373 194.770303,31.8705306 L194.770303,31.8705306 Z" id="路径" fill="#EB4944"></path>
                <path d="M189.087148,46.9946216 C187.337494,47.1332747 182,44.5450835 182,44.5450835 C182,44.5450835 186.806307,41.1491829 188.555961,41.0105298 C189.687534,40.9208932 190.783773,41.4083463 191.431735,42.2892703 C192.079696,43.1701943 192.18094,44.3107558 191.697328,45.2813163 C191.213716,46.2518768 190.218721,46.9049851 189.087148,46.9946216 L189.087148,46.9946216 Z" id="路径" fill="#EB4944"></path>
                <path d="M182.060338,56.9335833 C180.674086,57.3534604 176,55.6452236 176,55.6452236 C176,55.6452236 179.371503,51.514959 180.753952,51.0972918 C182.14076,50.6792765 183.556583,51.6469064 183.916281,53.2585539 C184.27598,54.8702013 183.443343,56.515568 182.056535,56.9335833 L182.060338,56.9335833 Z" id="路径" fill="#EB4944"></path>
                <path d="M182.265144,32.7898824 C182.933518,34.149194 187.605559,37 187.605559,37 C187.605559,37 188.401033,31.9691659 187.73266,30.6098543 C187.067011,29.2478676 185.300998,28.6295669 183.788159,29.228841 C182.275321,29.8281152 181.588538,31.4180313 182.254187,32.780018 L182.265144,32.7898824 Z" id="路径" fill="#EB4944"></path>
                <path d="M174.821213,44.0714218 C176.032209,45.3386812 182,47 182,47 C182,47 180.990029,41.3085278 179.786298,40.0390295 C178.582432,38.7715645 176.495033,38.6462618 175.123962,39.7591578 C173.752892,40.8720539 173.617346,42.8017178 174.821213,44.0691829 L174.821213,44.0714218 Z" id="路径" fill="#EB4944"></path>
                <path d="M168.390251,55.2748851 C169.22123,56.6109319 173.999359,59 173.999359,59 C173.999359,59 174.051295,53.6391642 173.220316,52.3031174 C172.385293,51.0040616 170.666915,50.6117904 169.35248,51.4201679 C168.038045,52.2285454 167.609629,53.9410948 168.388174,55.2748851 L168.390251,55.2748851 Z" id="路径" fill="#FD5B38"></path>
                <path d="M31,119 C31,119 23.2487223,108.879393 23.7356616,98.7231875 C23.9672272,94.4654984 22.8820993,90.2435005 20.6431005,86.6907012 C19.5672983,85.0131496 18.3478309,83.4430153 17,82" id="路径" stroke="#535461" stroke-width="2"></path>
                <path d="M17.7772737,75.6501877 C18.4136367,77.0160651 17.4840921,82 17.4840921,82 C17.4840921,82 12.8659144,79.065893 12.2295513,77.7000156 C11.5944244,76.3349155 12.3224698,74.7698667 13.8556862,74.2043811 C15.3889027,73.6388956 17.1466922,74.2871112 17.7818191,75.6522112 L17.7772737,75.6501877 Z" id="路径" fill="#EB4944"></path>
                <path d="M24.9424957,81.0514663 C24.6423817,82.4388334 20.8159281,86 20.8159281,86 C20.8159281,86 18.7219508,81.5094133 19.0311592,80.1259107 C19.2129616,79.2180597 19.9556641,78.4636491 20.9750453,78.1513807 C21.9944266,77.8391123 23.1326695,78.0173304 23.9541854,78.6178335 C24.7757014,79.2183367 25.153306,80.1481571 24.9424957,81.0514663 L24.9424957,81.0514663 Z" id="路径" fill="#EB4944"></path>
                <path d="M30.4603453,94.9876155 C29.5499697,96.2763113 25,98 25,98 C25,98 25.7252468,92.2613494 26.6356225,90.9726537 C27.560954,89.7689172 29.1006989,89.6693994 30.1252929,90.747107 C31.1498868,91.8248147 31.2943534,93.6958514 30.4527111,94.9876155 L30.4603453,94.9876155 Z" id="路径" fill="#EB4944"></path>
                <path d="M32.6090587,106.245408 C31.7983651,107.580848 27.0031987,110 27.0031987,110 C27.0031987,110 26.9104864,104.666772 27.7233361,103.339865 C28.5431156,102.025101 30.27939,101.607586 31.6176087,102.403425 C32.9558274,103.199265 33.3978687,104.912226 32.6090587,106.245408 L32.6090587,106.245408 Z" id="路径" fill="#FD5B38"></path>
                <path d="M15.6294811,89.8031515 C17.0092522,90.4179225 22,89.3963513 22,89.3963513 C22,89.3963513 18.9925461,84.8027089 17.6148071,84.1856525 C16.2471703,83.6215001 14.7288284,84.3850271 14.1907588,85.9075001 C13.6526893,87.4299732 14.2906687,89.1574402 15.6294811,89.8031515 L15.6294811,89.8031515 Z" id="路径" fill="#EB4944"></path>
                <path d="M18.3558222,101.995852 C19.7543795,102.118457 24,99.4824416 24,99.4824416 C24,99.4824416 20.1309142,96.1312279 18.7323568,96.0086225 C17.8274159,95.9275064 16.9546001,96.4231318 16.4426907,97.3088013 C15.9307813,98.1944709 15.8575496,99.3356305 16.2505812,100.302416 C16.6436128,101.269202 17.4431968,101.914736 18.3481378,101.995852 L18.3558222,101.995852 Z" id="路径" fill="#EB4944"></path>
                <path d="M20.9637719,114.940147 C22.3499702,115.344146 27,113.570658 27,113.570658 C27,113.570658 23.601073,109.487299 22.2148746,109.090147 C20.8275381,108.687392 19.4228107,109.671994 19.0773283,111.289318 C18.7318458,112.906642 19.5764354,114.544239 20.9637719,114.946994 L20.9637719,114.940147 Z" id="路径" fill="#EB4944"></path>
                <path d="M203.40587,135 C203.40587,135 205.007473,137.251528 202.666992,140.62882 C200.326512,144.006111 198.395353,146.883564 199.176213,149 C199.176213,149 202.708974,142.695722 205.582622,142.612416 C208.456271,142.529109 206.569193,138.78707 203.40587,135 Z" id="路径" fill="#EB4944"></path>
                <path d="M203.364907,135 C203.506117,135.217013 203.61762,135.454125 203.696097,135.704275 C206.532437,139.236901 208.04402,142.533269 205.318076,142.616522 C202.770465,142.693025 199.730315,147.505947 199,148.72324 C199.024215,148.817112 199.053273,148.909504 199.087043,149 C199.087043,149 202.660068,142.699775 205.566468,142.616522 C208.472868,142.533269 206.564283,138.784635 203.364907,135 Z" id="路径" fill="#000000" opacity="0.1"></path>
                <path d="M207.182388,137.52194 C207.182388,138.339986 207.099484,139 207,139 C206.900516,139 206.817612,138.339986 206.817612,137.52194 C206.817612,136.703895 206.919169,137.092002 207.024871,137.092002 C207.130573,137.092002 207.182388,136.706219 207.182388,137.52194 Z" id="路径" fill="#FFD037"></path>
                <path d="M208.52415,138.009358 C207.743806,138.713047 207.062273,139.136098 207.004,138.960176 C206.945728,138.784253 207.530985,138.06381 208.311329,137.360122 C209.091673,136.656433 208.785109,137.167445 208.843382,137.360122 C208.901654,137.552798 209.307027,137.30567 208.52415,138.009358 Z" id="路径" fill="#FFD037"></path>
                <path d="M196.59413,135 C196.59413,135 194.992527,137.251528 197.333008,140.62882 C199.673488,144.006111 201.604647,146.883564 200.823787,149 C200.823787,149 197.291026,142.695722 194.417378,142.612416 C191.543729,142.529109 193.430807,138.78707 196.59413,135 Z" id="路径" fill="#FF5757"></path>
                <path d="M196.635093,135 C196.492839,135.216358 196.381258,135.453635 196.303903,135.704275 C193.46544,139.236901 191.95598,142.533269 194.681924,142.616522 C197.229535,142.693025 200.269685,147.505947 201,148.72324 C200.974524,148.815493 200.946925,148.907747 200.912957,149 C200.912957,149 197.339932,142.699775 194.433532,142.616522 C191.527132,142.533269 193.435717,138.784635 196.635093,135 Z" id="路径" fill="#000000" opacity="0.1"></path>
                <path d="M193.817612,137.52194 C193.817612,138.339986 193.900516,139 194,139 C194.099484,139 194.182388,138.339986 194.182388,137.52194 C194.182388,136.703895 194.080831,137.092002 193.975129,137.092002 C193.869427,137.092002 193.817612,136.706219 193.817612,137.52194 Z" id="路径" fill="#FFD037"></path>
                <path d="M192.475167,138.009358 C193.258556,138.713047 193.940535,139.136098 193.996311,138.960176 C194.052086,138.784253 193.468981,138.06381 192.688127,137.360122 C191.907273,136.656433 192.214037,137.167445 192.155726,137.360122 C192.097416,137.552798 191.694313,137.30567 192.475167,138.009358 Z" id="路径" fill="#FFD037"></path>
                <ellipse id="椭圆形" fill="#129CFF" opacity="0.1" cx="200.5" cy="161" rx="16.5" ry="3"></ellipse>
                <path d="M208.996259,146.014882 L208.91301,146.692196 L208.794708,147.650454 L208.746511,148.05118 L208.630401,149.009437 L208.577823,149.410163 L208.461712,150.368421 L207.123155,161.257713 C207.004854,162.231216 205.405596,163 203.475532,163 L196.526428,163 C194.596365,163 192.999297,162.242105 192.878805,161.257713 L191.540248,150.368421 L191.421947,149.410163 L191.37375,149.009437 L191.255449,148.05118 L191.205061,147.650454 L191.088951,146.692196 L191.003511,146.014882 C190.937788,145.463884 191.80314,145 192.894141,145 L207.10782,145 C208.19882,145 209.064172,145.463884 208.996259,146.014882 Z" id="路径" fill="#65617D"></path>
                <polygon id="路径" fill="#9D9CB5" points="209 146 208.880531 147 191.117257 147 191 146"></polygon>
                <polygon id="路径" fill="#9D9CB5" points="207 148 206.891797 149 191.110207 149 191 148"></polygon>
                <polygon id="路径" fill="#9D9CB5" points="207 148 206.891712 149 191.110331 149 191 148"></polygon>
                <path d="M166.341985,37.826845 L166.168509,37.826845 C166.441114,37.5187485 166.581547,37.210652 166.55883,36.9374731 L164.989283,35.3764509 L165.588189,34.0413661 L163.570496,34.0413661 L163.944296,33 L162.748549,33 L149.518922,37.3831861 C149.518922,37.3831861 149.504465,37.56599 149.518922,37.826845 L141,37.826845 L141,76 L178,76 L178,37.826845 L166.341985,37.826845 Z" id="路径" fill="url(#linearGradient-1)"></path>
                <rect id="矩形" fill="#F6F7F9" x="141" y="39" width="37" height="37"></rect>
                <path d="M166,39 C164.125869,41.5897616 151.607753,45 151.607753,45 L151.686215,42.3008415 L149.370453,42.3008415 C149.500849,41.7668979 149.239501,41.2163473 148.729303,40.9502104 C148.056769,40.6030856 147.991757,39.4775596 148.000724,39 L166,39 Z" id="路径" fill="#000000" opacity="0.1"></path>
                <path d="M161.973793,33.0098756 L148.011501,37.1576141 C148.011501,37.1576141 147.852159,38.7772072 148.719685,39.1979064 C149.222203,39.4487007 149.479805,39.9647781 149.352624,40.4659293 L151.638731,40.4659293 L151.561274,43 C151.561274,43 166.233963,39.1979064 165.997164,36.7349398 L164.341784,35.2555797 L164.97251,33.9875568 L162.841319,33.9875568 L163.237459,33 L161.973793,33.0098756 Z" id="路径" fill="#9D9CB5"></path>
                <g id="分组" opacity="0.35" transform="translate(149.000000, 51.000000)" fill="#FD5B38">
                    <rect id="矩形" opacity="0.2" x="0.187256637" y="0.005" width="22.6376991" height="1.56"></rect>
                </g>
                <g id="分组" opacity="0.35" transform="translate(149.000000, 55.000000)" fill="#FD5B38">
                    <rect id="矩形" opacity="0.2" x="0.187256637" y="0.23" width="22.6376991" height="1.56"></rect>
                </g>
                <g id="分组" opacity="0.35" transform="translate(149.000000, 57.000000)" fill="#FD5B38">
                    <rect id="矩形" opacity="0.2" x="0.187256637" y="0.36" width="22.6376991" height="1.248"></rect>
                </g>
                <g id="分组" opacity="0.35" transform="translate(149.000000, 61.000000)" fill="#FD5B38">
                    <rect id="矩形" opacity="0.2" x="0.187256637" y="0.17" width="22.6376991" height="1.56"></rect>
                </g>
                <g id="分组" opacity="0.35" transform="translate(149.000000, 65.000000)" fill="#FD5B38">
                    <rect id="矩形" opacity="0.2" x="0.187256637" y="0.39" width="22.6376991" height="1.56"></rect>
                </g>
                <g id="分组" opacity="0.35" transform="translate(149.000000, 68.000000)" fill="#FD5B38">
                    <rect id="矩形" opacity="0.2" x="0.187256637" y="0.115" width="22.6376991" height="1.56"></rect>
                </g>
                <path d="M42.8460214,35.7510364 L42.7576511,35.7510364 C43.4225325,34.1085526 44.0369166,32.506624 44.0095639,32.2004326 C43.9506503,31.5921053 42.6861132,32.9142033 42.6271997,32.5836788 C42.5682862,32.2531543 42.6271997,31 42.0527927,31 C41.4783856,31 41.1312165,31.6509102 40.7903596,31.6509102 C40.4495027,31.6509102 39.0629304,31.4319124 39.0629304,31.4319124 L37.2976282,35.7510364 L24,35.7510364 L24,76 L57,76 L57,35.7510364 L42.8460214,35.7510364 Z" id="路径" fill="url(#linearGradient-2)"></path>
                <rect id="矩形" fill="#F6F7F9" x="26" y="35" width="31" height="41"></rect>
                <path d="M43,35 C42.4,36.5450423 41.723839,38.1729534 41.5696594,38.5615159 C41.2705882,39.2981273 41.0736842,38.9058817 40.7244582,38.8082807 C40.3752322,38.7106797 39.9312693,38.9058817 39.7325077,38.8082807 C39.5337461,38.7106797 38.3671827,38.8082807 38.3671827,38.8082807 C38.3802214,38.6274278 38.3802214,38.4458828 38.3671827,38.2650299 C38.3411765,38.0698278 37,38.2650299 37,38.2650299 L38.2780186,35 L43,35 Z" id="路径" fill="#000000" opacity="0.1"></path>
                <path d="M38.1211065,31.4795776 L35,40.0891365 C35,40.0891365 36.5319095,39.8447803 36.5594924,40.0891365 C36.5755109,40.3126073 36.5755109,40.5370743 36.5594924,40.7605451 C36.5594924,40.7605451 37.8940784,40.6372251 38.1211065,40.7605451 C38.3481347,40.883865 38.8573567,40.6372251 39.2541255,40.7605451 C39.6508943,40.883865 39.8779224,41.3702937 40.2195255,40.4545289 C40.5611286,39.5387642 43.0563164,33.0050909 42.9990289,32.3336823 C42.9417415,31.6622738 41.6941476,33.1284109 41.6368601,32.7607347 C41.5795726,32.3930586 41.6368601,31 41.0703506,31 C40.5038411,31 40.162238,31.7239337 39.8227567,31.7239337 C39.4832754,31.7239337 38.1211065,31.4795776 38.1211065,31.4795776 Z" id="路径" fill="#9D9CB5"></path>
                <g id="分组" opacity="0.35" transform="translate(30.000000, 47.000000)" fill="#FD5B38">
                    <rect id="矩形" opacity="0.2" x="0.00616071429" y="0.02" width="22.8398214" height="1.56"></rect>
                </g>
                <g id="分组" opacity="0.35" transform="translate(30.000000, 49.000000)" fill="#FD5B38">
                    <rect id="矩形" opacity="0.2" x="0.00616071429" y="0.405" width="22.8398214" height="1.56"></rect>
                </g>
                <g id="分组" opacity="0.35" transform="translate(30.000000, 51.000000)" fill="#FD5B38">
                    <rect id="矩形" opacity="0.2" x="0.00616071429" y="0.285" width="22.8398214" height="1.56"></rect>
                </g>
                <g id="分组" opacity="0.35" transform="translate(30.000000, 53.000000)" fill="#FD5B38">
                    <rect id="矩形" opacity="0.2" x="0.00616071429" y="0.17" width="22.8398214" height="1.56"></rect>
                </g>
                <g id="分组" opacity="0.35" transform="translate(30.000000, 57.000000)" fill="#FD5B38">
                    <rect id="矩形" opacity="0.2" x="0.00616071429" y="0.05" width="22.8398214" height="1.56"></rect>
                </g>
                <g id="分组" opacity="0.35" transform="translate(30.000000, 59.000000)" fill="#FD5B38">
                    <rect id="矩形" opacity="0.2" x="0.00616071429" y="0.43" width="22.8398214" height="1.56"></rect>
                </g>
                <path d="M163.256151,96.0166551 L163.170941,96.0166551 C163.958123,93.9347675 164.684441,91.9007634 164.649951,91.5197779 C164.583,90.7557252 163.085731,92.4233171 163.026895,92.0069396 C162.968059,91.5905621 163.026895,90 162.34724,90 C161.667586,90 161.259793,90.832755 160.852,90.832755 C160.444207,90.832755 158.811008,90.5537821 158.811008,90.5537821 L156.713208,96.0166551 L141,96.0166551 L141,147 L180,147 L180,96.0166551 L163.256151,96.0166551 Z" id="路径" fill="url(#linearGradient-3)"></path>
                <rect id="矩形" fill="#F6F7F9" x="141" y="96" width="39" height="51"></rect>
                <path d="M162,96 C161.206045,98.3215349 160.315365,100.75168 160.107809,101.335457 C159.704786,102.453234 159.444836,101.85588 158.979345,101.708804 C158.513854,101.561728 157.91738,101.85588 157.651385,101.708804 C157.38539,101.561728 155.825693,101.708804 155.825693,101.708804 C155.843111,101.435366 155.843111,101.16088 155.825693,100.887442 C155.791436,100.591028 154,100.887442 154,100.887442 L155.698741,96 L162,96 Z" id="路径" fill="#000000" opacity="0.1"></path>
                <path d="M157.900503,90.5760616 L154,100.907359 C154,100.907359 155.913657,100.613768 155.950251,100.907359 C155.968865,101.175399 155.968865,101.444472 155.950251,101.712511 C155.950251,101.712511 157.61636,101.56794 157.900503,101.712511 C158.184645,101.857083 158.821814,101.56794 159.319063,101.712511 C159.816313,101.857083 160.098303,102.446489 160.524517,101.347746 C160.95073,100.249003 164.069841,92.4065585 163.998805,91.6014068 C163.92777,90.796255 162.367138,92.5533541 162.296103,92.1151914 C162.225067,91.6770287 162.296103,90 161.587899,90 C160.879695,90 160.453481,90.8696528 160.027267,90.8696528 C159.601053,90.8696528 157.900503,90.5760616 157.900503,90.5760616 Z" id="路径" fill="#9D9CB5"></path>
                <g id="分组" opacity="0.35" transform="translate(149.000000, 109.000000)" fill="#FD5B38">
                    <rect id="矩形" opacity="0.2" x="0.187256637" y="0.133333333" width="22.6376991" height="1.76222222"></rect>
                </g>
                <g id="分组" opacity="0.35" transform="translate(149.000000, 121.000000)" fill="#FD5B38">
                    <rect id="矩形" opacity="0.2" x="0.187256637" y="0.0244444444" width="22.6376991" height="1.76222222"></rect>
                </g>
                <g id="分组" opacity="0.35" transform="translate(149.000000, 131.000000)" fill="#FD5B38">
                    <rect id="矩形" opacity="0.2" x="0.187256637" y="0.14" width="22.6376991" height="1.76222222"></rect>
                </g>
                <polygon id="路径" fill="url(#linearGradient-4)" points="49.075404 98.1944392 49.075404 92 40.3072653 92 40.3072653 98.1944392 22 98.1944392 22 147 65 147 65 98.1944392"></polygon>
                <rect id="矩形" fill="#F6F7F9" x="23" y="98" width="41" height="47"></rect>
                <rect id="矩形" fill="#000000" opacity="0.1" x="41" y="98" width="8" height="6"></rect>
                <rect id="矩形" fill="#9D9CB5" x="41" y="92" width="8" height="12"></rect>
                <g id="分组" opacity="0.35" transform="translate(32.000000, 109.000000)" fill="#FD5B38">
                    <rect id="矩形" opacity="0.2" x="0.19539823" y="0.142222222" width="22.6376991" height="1.76222222"></rect>
                </g>
                <g id="分组" opacity="0.35" transform="translate(32.000000, 113.000000)" fill="#FD5B38">
                    <rect id="矩形" opacity="0.2" x="0.19539823" y="0.0911111111" width="22.6376991" height="1.76222222"></rect>
                </g>
                <g id="分组" opacity="0.35" transform="translate(32.000000, 115.000000)" fill="#FD5B38">
                    <rect id="矩形" opacity="0.2" x="0.19539823" y="0.0422222222" width="22.6376991" height="1.76222222"></rect>
                </g>
                <g id="分组" opacity="0.35" transform="translate(32.000000, 119.000000)" fill="#FD5B38">
                    <rect id="矩形" opacity="0.2" x="0.19539823" y="0.213333333" width="22.6376991" height="1.76222222"></rect>
                </g>
                <g id="分组" opacity="0.35" transform="translate(49.000000, 123.000000)" fill="#FD5B38">
                    <rect id="矩形" opacity="0.2" x="0.0812903226" y="0.1248" width="5.76193548" height="5.7744"></rect>
                </g>
                <g id="分组" opacity="0.35" transform="translate(33.000000, 129.000000)" fill="#FD5B38">
                    <rect id="矩形" opacity="0.2" x="0.185806452" y="0.0672" width="5.76193548" height="5.7744"></rect>
                </g>
                <path d="M107.858261,97.7668564 L107.799006,97.7668564 C108.48467,95.0938022 109.001034,92.9650637 109.001034,92.9650637 L106.076382,94.3364017 C106.076382,94.3364017 104.000345,91.5937257 103.232147,92.0515416 C102.46395,92.5093575 100.777302,93.6507327 100.777302,93.6507327 L98.5383139,92.5072478 L97.6812343,97.7668564 L80,97.7668564 L80,135.719163 L81.136424,136.396393 C82.073921,136.060942 83.6166642,135.49131 83.6166642,135.49131 L82.9077218,137.453378 L83.3859934,137.736084 L84.1922831,137.00822 L84.4906738,138.398546 L85.4493331,138.970289 L86.9624489,138.010352 L86.5391998,139.626421 L87.9592007,140.470321 L92.0879965,138.923874 L90.8436439,142.189768 L91.662631,142.67923 L93.5312761,142.352219 C93.5312761,142.352219 93.4466263,143.004132 93.3937202,143.710899 L95.268714,144.829066 C96.0369113,144.531592 96.7606674,144.238336 96.7606674,144.238336 C96.7606674,144.238336 96.6865987,144.951432 96.6527388,145.651869 L97.9097889,146.402941 C98.9023082,145.824869 100.165707,145.037932 100.165707,145.037932 L99.107584,147 L123,147 L123,97.7668564 L107.858261,97.7668564 Z" id="路径" fill="url(#linearGradient-5)"></path>
                <path d="M123,98 L123,145 L100.216049,145 L101.23251,143.128409 C101.23251,143.128409 100.028807,143.877454 99.0823045,144.430563 L97.8847737,143.712133 C97.9176955,143.044728 97.9897119,142.363036 97.9897119,142.363036 C97.9897119,142.363036 97.2983539,142.642652 96.5658436,142.926351 L94.7777778,141.858911 C94.8292181,141.185383 94.9074074,140.56288 94.9074074,140.56288 L93.127572,140.875152 L92.3477366,140.407764 L93.5329218,137.289126 L89.5967078,138.766806 L88.2407407,137.950408 L88.6358025,136.407417 L87.1954733,137.323823 L86.281893,136.778878 L85.9979424,135.452232 L85.2283951,136.150252 L84.7716049,135.8788 L85.4485597,134.007209 C85.4485597,134.007209 83.9773663,134.550113 83.0823045,134.870549 L82,134.225595 L82,98 L123,98 Z" id="路径" fill="#F6F7F9"></path>
                <g id="分组" opacity="0.35" transform="translate(90.000000, 113.000000)" fill="#FD5B38">
                    <rect id="矩形" opacity="0.2" x="0.191327434" y="0.0911111111" width="22.6376991" height="1.76222222"></rect>
                </g>
                <g id="分组" opacity="0.35" transform="translate(90.000000, 117.000000)" fill="#FD5B38">
                    <rect id="矩形" opacity="0.2" x="0.191327434" y="0.0266666667" width="22.6376991" height="1.76222222"></rect>
                </g>
                <g id="分组" opacity="0.35" transform="translate(90.000000, 123.000000)" fill="#FD5B38">
                    <rect id="矩形" opacity="0.2" x="0.191327434" y="0.182222222" width="22.6376991" height="1.76222222"></rect>
                </g>
                <g id="分组" opacity="0.35" transform="translate(90.000000, 127.000000)" fill="#FD5B38">
                    <rect id="矩形" opacity="0.2" x="0.235" y="0.117777778" width="5.57" height="1.76222222"></rect>
                </g>
                <path d="M110,98.0019803 C108.808573,102.235916 107.071991,108.10164 106.619161,107.998663 C105.915735,107.826374 104.816633,106.612435 104.816633,106.612435 C104.816633,106.612435 102.231544,108.800694 100.978568,107.671909 C99.7255908,106.543123 98,107.317431 98,107.317431 L99.6706356,98 L110,98.0019803 Z" id="路径" fill="#000000" opacity="0.1"></path>
                <path d="M100.286191,92.4986282 L98,107.282003 C98,107.282003 99.5708799,106.460937 100.712974,107.656928 C101.855068,108.85292 104.213391,106.532152 104.213391,106.532152 C104.213391,106.532152 105.215228,107.81402 105.856403,107.998341 C106.497579,108.182662 110,92.9468631 110,92.9468631 L107.285023,94.291568 C107.285023,94.291568 105.357489,91.6021583 104.642177,92.0503933 C103.926866,92.4986282 102.364001,93.6192156 102.364001,93.6192156 L100.286191,92.4986282 Z" id="路径" fill="#9D9CB5"></path>
                <path d="M118.691861,29.4165874 L118.691861,28 L96.4699723,28 C95.4501778,28 96.0741999,29.4165874 96.0741999,29.4165874 L84,29.4165874 L84,61 L137,61 L137,29.4040327 L118.691861,29.4165874 Z" id="路径" fill="url(#linearGradient-6)"></path>
                <rect id="矩形" fill="#F6F7F9" x="84" y="29" width="53" height="31"></rect>
                <path d="M117.767538,35 L97.6020193,35 C97.6020193,35 97.3844862,32.1639951 98.0919769,31.6387176 C98.7994677,31.1134402 96.0792878,29.2638718 96.0792878,29.2638718 C96.0491702,29.1776103 96.0227064,29.0895382 96,29 L117.767538,29 L117.767538,29.8581998 C117.767538,29.8581998 120.540577,32.8249075 117.767538,35 Z" id="路径" fill="#000000" opacity="0.1"></path>
                <path d="M96.5585459,27 L117.772956,27 L117.772956,28.8216433 C117.772956,28.8216433 120.533805,31.2264529 117.772956,33 L97.6960803,33 C97.6960803,33 97.4795035,30.6953908 98.1838842,30.2685371 C98.888265,29.8416834 96.1800424,28.3386774 96.1800424,28.3386774 C96.1800424,28.3386774 95.5849621,27 96.5585459,27 Z" id="路径" fill="#9D9CB5"></path>
                <g id="分组" opacity="0.35" transform="translate(92.000000, 39.000000)" fill="#FD5B38">
                    <rect id="矩形" opacity="0.2" x="0.137526316" y="0.384" width="38.7085263" height="1.248"></rect>
                </g>
                <g id="分组" opacity="0.35" transform="translate(92.000000, 41.000000)" fill="#FD5B38">
                    <rect id="矩形" opacity="0.2" x="0.135175439" y="0.36" width="22.7276316" height="1.56"></rect>
                </g>
                <g id="分组" opacity="0.35" transform="translate(92.000000, 43.000000)" fill="#FD5B38">
                    <rect id="矩形" opacity="0.2" x="0.137526316" y="0.245" width="38.7085263" height="1.56"></rect>
                </g>
                <g id="分组" opacity="0.35" transform="translate(92.000000, 47.000000)" fill="#FD5B38">
                    <rect id="矩形" opacity="0.2" x="0.137526316" y="0.125" width="38.7085263" height="1.56"></rect>
                </g>
                <g id="分组" opacity="0.35" transform="translate(92.000000, 49.000000)" fill="#FD5B38">
                    <rect id="矩形" opacity="0.2" x="0.137526316" y="0.005" width="38.7085263" height="1.56"></rect>
                </g>
                <path d="M146.98555,173.107577 C146.615536,171.521869 146.388153,170.131774 146.388153,170.131774 C146.388153,170.131774 146.472904,168.40664 145.703936,167.11227 L145.703936,166.681507 L145.703936,166.681507 L145.703936,163.495524 C145.921944,162.918568 146.188899,162.361582 146.501844,161.830739 C147.072369,160.827707 146.501844,157.156856 146.501844,157.156856 C146.501844,157.156856 144.389248,151.981455 144.903961,148.699748 C145.418674,145.41804 140.56301,134.122474 140.56301,134.122474 C140.59286,133.032617 140.746128,131.949748 141.019843,130.894872 C141.070242,130.673203 141.091096,130.445764 141.081857,130.218553 C141.081857,130.1915 141.081857,130.164448 141.081857,130.135314 L141.081857,130.162367 C141.009508,127.998146 139.310336,123.940233 139.310336,123.940233 L139.537719,116.205225 C139.537719,116.205225 140.622957,111.643714 138.853502,105.523549 C138.233367,103.386381 137.838547,101.677895 137.588425,100.358553 C137.559486,100.208722 137.532613,100.065135 137.507808,99.9277899 C141.152139,99.3680059 143.934482,98.9018661 143.934482,98.9018661 C143.934482,98.9018661 141.819819,89.9952663 140.393506,88.4386924 C138.967194,86.8821184 137.824077,81.9876505 137.824077,81.9876505 C137.824077,81.9876505 137.079914,75.7010061 138.28091,73.8718235 C139.481907,72.042641 139.649343,68.8629016 139.649343,68.8629016 C139.649343,68.8629016 142.390344,66.8609977 142.733485,65.9703377 C143.076627,65.0796777 143.647152,63.0777737 143.647152,62.0164733 C143.647152,60.9551728 143.30401,60.0124883 143.419769,59.4568663 C143.535528,58.9012443 142.619794,56.7869674 143.076627,55.7839344 C143.195315,55.4759564 143.256968,55.1486988 143.258534,54.8183591 C143.259682,54.8086823 143.259682,54.7989022 143.258534,54.7892254 C143.258534,54.7892254 143.258534,54.7892254 143.258534,54.7788205 C143.261577,53.9024704 143.180584,53.0278707 143.016681,52.167189 C143.016681,52.167189 141.776409,51.0663499 140.306687,50.7105021 L140.246741,50.4711893 L140.091707,49.8468949 C140.004421,49.7879056 139.914024,49.7337207 139.820914,49.6845783 L139.820914,49.4577514 L139.796109,48.5546055 L140.22607,46.5214868 C141.067387,42.9838187 136.385362,42.4614924 136.385362,42.4614924 C136.104702,41.9165432 135.632238,41.4965627 135.060338,41.283657 C134.117732,40.948619 134.903237,46.5984831 135.343534,46.9584929 C135.67634,47.2311014 136.699564,49.0020165 137.191538,49.8718667 L137.191538,49.8718667 L137.272156,50.0154544 C137.197422,50.0854613 137.128303,50.1613066 137.065444,50.2422813 L137.243216,51.4679793 L137.270089,51.6552676 C136.960303,52.0442088 136.708882,52.4768047 136.523859,52.939233 C136.523859,52.939233 137.381713,53.8839985 137.210142,54.941137 C137.038572,55.9982755 137.472667,57.3155366 137.493338,57.388371 C137.44166,57.3301035 136.840128,56.6725134 136.238596,56.832749 C135.637065,56.9929845 133.964765,57.500744 133.964765,57.500744 C133.964765,57.500744 132.707956,57.723409 132.823715,58.0022604 C132.939474,58.2811119 131.965861,59.5047289 131.965861,59.5047289 L128.590255,56.2833699 C128.557181,56.1876448 128.524107,56.0919196 128.4931,55.9920325 C128.352374,55.5318165 128.254114,55.0595141 128.199569,54.5811272 C128.567186,54.4928089 128.92784,54.3773488 129.278605,54.2356844 C129.633599,54.1138541 129.954126,53.9075409 130.212943,53.6342808 C130.551951,53.2180845 130.626367,52.6749484 130.756596,52.1775939 C131.023254,51.1870468 131.597913,50.3047108 132.00927,49.3661882 C132.704102,47.7807861 132.93778,46.0294376 132.683151,44.3156467 C132.629905,43.7884988 132.451991,43.2818622 132.164304,42.83815 C131.61445,42.0744299 130.613964,41.7643637 129.890473,41.1546361 C129.166981,40.5449086 128.695678,39.616791 127.848159,39.1589751 C127.083325,38.7427789 126.148987,38.7948034 125.286998,38.9363101 C123.597666,39.2162967 121.974886,39.8104842 120.501616,40.6884963 C120.009642,40.9819147 119.468057,41.3127907 118.901666,41.2170656 C118.41796,41.1296644 118.062416,40.7384399 117.750281,40.3659443 C117.754146,40.3497124 117.758978,40.3337293 117.76475,40.3180817 L117.727542,40.2743811 C117.370049,41.0732273 117.190827,41.9412473 117.202494,42.8173402 C117.202494,42.952604 117.202494,43.0878677 117.219031,43.2335364 C117.219031,43.281399 117.219031,43.3292616 117.219031,43.3771241 C117.222088,43.4159082 117.222088,43.454875 117.219031,43.4936591 L117.219031,43.4936591 C117.219062,43.5541844 117.210713,43.6144187 117.194225,43.6726235 C117.12244,43.8467933 117.014625,44.0035712 116.877956,44.1325203 C116.774865,44.249182 116.682823,44.3752822 116.603029,44.5091779 C116.617499,44.4633964 116.631969,44.4176148 116.648506,44.3718332 C116.43312,44.6875423 116.311907,45.0586741 116.299163,45.4414575 C116.280727,45.7210649 116.372023,45.9967894 116.553418,46.2093396 C116.721679,46.3756602 116.905859,46.5248288 117.103272,46.6546696 C116.626525,49.3284955 117.855912,52.0180573 120.18328,53.3928869 C120.222555,53.4886121 120.259764,53.5864182 120.299039,53.6842243 C120.729,54.828764 121.053537,56.160592 120.919175,57.3904519 C120.906772,57.4820151 120.894369,57.5714973 120.877832,57.6609795 C120.834423,57.7067611 120.79308,57.7546237 120.755872,57.8024862 L120.755872,57.8024862 C120.755872,57.8024862 115.17465,57.8565918 113.870297,56.6600275 C112.565945,55.4634633 110.562906,59.5734013 110.562906,59.5734013 C110.562906,59.5734013 108.564002,59.9646258 108.165048,59.5734013 C107.766094,59.1821768 105.424048,59.5192958 105.424048,59.5192958 C105.424048,59.5192958 103.995668,58.1271193 101.940952,58.2394923 C101.160501,57.6423863 100.299502,57.160301 99.3839248,56.8077772 L99.3839248,56.8077772 L99.3198441,56.7848864 L99.3198441,56.7848864 C98.9178047,56.6386866 98.4885856,56.5839638 98.0630356,56.6246508 C98.0630356,56.6246508 95.3220353,54.3355715 94.5241272,53.1202784 C93.7262191,51.9049853 89.9165181,47.3559603 89.8999811,47.3351505 L89.8855113,47.1270524 L89.8421018,46.4653003 C89.7292473,46.4832001 89.6152639,46.4929363 89.5010271,46.4944341 L89.4245437,46.2655261 C89.2058652,45.6199374 88.9348493,44.9935344 88.6142329,44.392643 C88.6142329,44.392643 88.6142329,43.5602505 88.8560858,43.3521524 C89.0979388,43.1440542 88.7568641,40.0829308 88.7568641,40.0829308 C88.7568641,40.0829308 86.2866564,34.2686692 84.0748387,38.6095961 C84.0748387,38.6095961 79.8930562,41.4168398 83.4030249,44.6860613 C83.4030249,44.6860613 84.8024647,45.3707042 85.0009082,45.9117593 C85.1311367,46.2634451 85.6065741,47.2435873 85.9269777,47.8970154 C85.9807228,48.0052265 86.0282665,48.1051136 86.0696089,48.1883528 L86.0303336,48.2216485 L86.0820116,48.7668656 L86.1026828,48.9749637 C85.4412046,49.3537023 84.9926397,49.726198 85.102197,50.0154544 C85.297577,50.4973399 85.4316255,51.0021692 85.5011511,51.5179228 C85.5011511,51.5179228 90.3547474,57.6380887 90.9831517,60.2580441 C90.9831517,60.2580441 104.006004,68.047157 108.284941,68.60486 L107.542845,72.4983759 C107.542845,72.4983759 107.313395,74.8353179 107.371274,75.6697913 C107.429153,76.5042648 106.856561,80.2895697 106.856561,80.2895697 C106.856561,80.2895697 106.114466,85.8520327 105.486061,86.6303196 C104.857657,87.4086066 104.973416,90.7485816 104.973416,90.7485816 C104.822205,92.3470462 104.535203,93.9295257 104.115561,95.478652 C103.495425,97.5929289 103.946057,100.206641 103.946057,100.206641 C103.946057,100.206641 101.775582,105.215563 106.97232,101.821483 C106.97232,101.821483 109.523145,101.661247 112.460522,101.56136 C112.460522,101.657085 112.460522,101.754891 112.460522,101.854779 C112.460522,102.235598 112.448119,102.647632 112.443985,103.082558 C112.40471,105.95015 112.388173,109.901933 112.516334,112.892303 C112.743717,118.177996 114.343668,128.639088 114.343668,128.639088 L114.343668,133.893566 C114.240441,134.387562 114.189855,134.891235 114.192768,135.396035 C114.157583,137.248438 114.645761,139.072802 115.600476,140.656755 L115.953954,144.125751 C115.953954,144.125751 116.892426,146.43564 116.91103,147.815331 C116.906567,147.927976 116.892738,148.040048 116.869688,148.150369 C116.834707,148.327069 116.819454,148.507151 116.824211,148.687262 C116.770466,150.279213 117.723408,154.085327 117.723408,154.085327 C117.723408,154.085327 117.781287,157.924738 118.343544,158.147403 C118.831384,158.336772 117.692401,160.359486 117.351327,160.94008 C117.351327,160.902622 117.336857,160.867245 117.330655,160.829787 C117.287246,160.904703 117.260373,160.946322 117.260373,160.946322 C117.143006,161.255989 117.082762,161.584618 117.082601,161.91606 C117.016569,162.45146 117.262826,162.977253 117.71514,163.266617 C118.800377,163.934612 119.383305,164.490234 118.463437,164.723303 C118.124566,164.775323 117.788563,164.84478 117.45675,164.931402 C117.440213,164.887701 117.423676,164.844 117.409206,164.802381 C117.144828,164.912278 116.98941,165.189953 117.03299,165.474538 C117.008185,165.75547 117.101205,166.165423 117.374065,166.777232 C118.287732,168.835322 118.92027,169.61569 118.92027,169.61569 L119.358499,169.565747 C119.291706,169.733007 119.206417,169.892164 119.104244,170.040211 C118.937385,170.281604 118.715529,170.47926 118.457235,170.616642 C118.219453,170.761042 117.953742,170.852572 117.677931,170.885089 C117.051094,170.906163 116.46268,171.194399 116.059377,171.677943 C115.490919,172.418772 115.133307,173.430129 116.266089,174.316627 L120.350717,175.735856 C120.350717,175.735856 127.378923,176.653569 127.00064,175.067861 C126.622357,173.482154 126.403242,172.092058 126.403242,172.092058 C126.403242,172.092058 126.481793,170.543808 125.832717,169.278571 C125.760092,169.134009 125.677192,168.994915 125.584663,168.862375 L125.832717,168.833241 C125.832717,168.833241 126.345363,165.328869 127.031647,164.671279 C127.188748,164.517286 127.223889,164.39867 127.186681,164.309188 C127.25903,164.117738 127.07919,164.005365 126.84974,163.942935 L126.800129,164.08028 C126.575985,164.031043 126.34739,164.005241 126.11798,164.003284 C126.11798,164.003284 125.88853,162.167858 126.630625,161.506106 C126.752805,161.352904 126.805322,161.155023 126.775324,160.960889 C126.781586,160.7096 126.755883,160.458538 126.69884,160.213817 C126.69884,160.226303 126.682303,160.242951 126.671968,160.255437 C126.297819,158.590652 125.032742,155.941563 125.032742,155.941563 C125.032742,155.941563 124.974863,154.276778 125.431696,153.606702 C125.88853,152.936626 125.375884,144.535704 125.375884,144.535704 C125.375884,144.535704 125.547455,140.47571 125.032742,138.584098 C124.518029,136.692486 125.652878,134.465836 125.652878,134.465836 C125.652878,134.465836 125.652878,134.422135 125.640475,134.345139 L125.654945,134.316005 C125.654945,134.316005 125.63014,134.066287 125.588797,133.677144 C125.583085,133.689263 125.578249,133.701782 125.574327,133.714602 C125.460636,132.640815 125.241521,130.693017 125.082353,129.791952 C124.852903,128.512149 125.138165,122.391983 125.138165,122.391983 L126.171725,119.77827 L127.999058,124.283595 L129.942151,130.293468 C129.942151,130.293468 130.903361,131.562867 130.9261,132.848913 C130.9261,132.911343 130.9261,132.973772 130.913697,133.036202 C130.898173,133.169502 130.89058,133.303618 130.890958,133.437831 C130.856749,134.196744 131.063848,134.946864 131.482155,135.579161 C131.482155,135.579161 131.996867,138.415538 132.796843,139.13972 C133.596818,139.863901 133.594751,141.253997 133.594751,141.253997 C133.594751,141.253997 134.566297,145.370178 135.02313,146.094359 C135.407614,146.704087 135.436554,148.383439 135.424151,148.893279 L135.424151,148.893279 C135.424151,148.989004 135.424151,149.04311 135.424151,149.04311 C135.424151,149.04311 135.558514,150.514363 135.55438,151.748385 C135.55438,151.900297 135.55438,152.048047 135.53991,152.187472 L135.53991,152.156258 C135.538533,152.493331 135.499002,152.829148 135.422084,153.15721 C135.415347,153.175551 135.409822,153.194321 135.405547,153.213396 C135.405547,153.144724 135.405547,153.07397 135.422084,153.005298 C135.223052,153.845606 135.127248,154.707335 135.136822,155.571148 C135.109949,157.050726 135.343534,158.804993 136.224127,159.832997 C137.766198,161.614317 138.737744,161.391652 138.737744,161.391652 C138.737744,161.391652 137.993581,163.616221 137.084048,164.061551 C137.049734,164.079149 137.017196,164.100057 136.986894,164.123981 C136.986894,164.08028 136.970357,164.038661 136.964155,163.99496 C136.77398,164.161438 136.697497,164.4611 136.697497,164.827353 C136.631349,165.805414 137.243216,167.395283 137.828211,168.125708 C138.044049,168.338727 138.308954,168.494589 138.599247,168.579362 C138.552533,168.61161 138.504239,168.641475 138.454548,168.668844 C138.35302,168.724726 138.248075,168.774075 138.140346,168.816594 C137.992851,168.88235 137.835813,168.923805 137.675244,168.939371 C137.047891,168.953751 136.456898,169.238724 136.052556,169.72182 C135.484098,170.460569 135.126486,171.471926 136.259268,172.358424 L140.343895,173.777653 C140.343895,173.777653 147.359699,174.693285 146.98555,173.107577 Z" id="路径" fill="url(#linearGradient-7)"></path>
                <path d="M120.03962,173.737233 L115.770876,172.329838 C114.59206,171.450732 114.967138,170.447808 115.563244,169.713156 C115.976768,169.237136 116.593337,168.950302 117.253327,168.926914 C117.542735,168.894256 117.82089,168.80339 118.068228,168.660706 C118.33754,168.522169 118.567169,168.326192 118.73801,168.08908 C119.050276,167.632364 119.218805,167.104307 119.224718,166.564059 C119.224718,166.564059 123.913192,165.294927 125.194708,166.564059 C125.423627,166.793487 125.614708,167.052853 125.76179,167.333792 C126.431572,168.588479 126.360129,170.123818 126.360129,170.123818 C126.360129,170.123818 126.599018,171.500259 126.985259,173.074808 C127.371499,174.649357 120.03962,173.737233 120.03962,173.737233 Z" id="路径" fill="#2D293D"></path>
                <path d="M138.035776,171.738032 L133.768873,170.330492 C132.592797,169.451295 132.967713,168.448268 133.56133,167.715604 C133.973721,167.238443 134.590602,166.951311 135.250685,166.92928 C135.419772,166.914051 135.584939,166.872899 135.739415,166.807513 C135.852011,166.765143 135.961582,166.716201 136.067466,166.66098 C137.261396,166.054211 137.230153,164.564117 137.230153,164.564117 C137.230153,164.564117 141.916604,163.294854 143.197568,164.564117 C143.369014,164.73563 143.518757,164.92466 143.643897,165.127546 C144.447288,166.411255 144.358023,168.124244 144.358023,168.124244 C144.358023,168.124244 144.596809,169.502891 144.985115,171.075538 C145.373421,172.648186 138.035776,171.738032 138.035776,171.738032 Z" id="路径" fill="#2D293D"></path>
                <path d="M124.515575,166.540274 C124.711127,166.760177 124.874357,167.008774 125,167.278049 L125,167.278049 L119,168 C119.26675,167.562246 119.410714,167.056113 119.415766,166.538296 C119.415766,166.538296 123.420852,165.325813 124.515575,166.540274 Z" id="路径" fill="#000000" opacity="0.1"></path>
                <path d="M145,165.28387 L145,166.668006 C143.895851,168.562087 138.551228,168.148491 137,167.196751 C137.113924,167.148507 137.224788,167.092778 137.331922,167.029902 C138.539938,166.33901 138.508326,164.642327 138.508326,164.642327 C138.508326,164.642327 143.250071,163.197092 144.546147,164.642327 C144.720406,164.837495 144.872677,165.052738 145,165.28387 L145,165.28387 Z" id="路径" fill="#000000" opacity="0.1"></path>
                <path d="M144.756785,160.313717 C144.456104,160.840125 144.199702,161.390812 143.990248,161.960042 L143.990248,166.310458 C142.893731,168.125532 137.193893,167.520508 136.427356,166.530654 C135.660819,165.540801 134.838944,162.954011 135.714108,162.513619 C136.589272,162.073227 137.300471,159.873324 137.300471,159.873324 C137.300471,159.873324 136.367919,160.09352 134.888134,158.331952 C133.408348,156.570383 133.846955,152.664475 134.123646,151.730185 C134.400337,150.795896 134.123646,147.657587 134.123646,147.657587 C134.123646,147.657587 134.178985,145.457684 133.740378,144.741533 C133.301771,144.025381 132.381517,139.95484 132.381517,139.95484 C132.381517,139.95484 132.381517,138.580158 131.61293,137.864007 C130.844344,137.147855 130.352448,134.342927 130.352448,134.342927 C129.903945,133.641687 129.71062,132.806349 129.805215,131.978392 C129.96918,130.601652 128.872663,129.115843 128.872663,129.115843 L127.009609,123.174665 L125.257232,118.717238 L124.271391,121.304027 C124.271391,121.304027 123.99675,127.356332 124.216053,128.621945 C124.435357,129.887558 124.763287,133.244005 124.763287,133.244005 C124.763287,133.244005 123.66882,135.443908 124.160715,137.314545 C124.65261,139.185183 124.490695,143.202218 124.490695,143.202218 C124.490695,143.202218 124.98259,151.509989 124.543984,152.170578 C124.105377,152.831166 124.160715,154.481607 124.160715,154.481607 C124.160715,154.481607 126.415236,159.321805 125.695839,159.982393 C124.976442,160.642982 125.201894,162.451882 125.201894,162.451882 C125.201894,162.451882 126.737017,162.451882 126.079107,163.11247 C125.421197,163.773059 124.927252,167.228285 124.927252,167.228285 L118.303061,168 C118.303061,168 117.688191,167.228285 116.819176,165.193015 C115.950161,163.157744 116.983141,163.37794 117.864454,163.157744 C118.745767,162.937548 118.188285,162.388087 117.147107,161.717209 C116.105928,161.046331 116.7085,159.570812 116.7085,159.570812 C116.7085,159.570812 118.296912,156.874954 117.749678,156.654757 C117.202445,156.434561 117.147107,152.637723 117.147107,152.637723 C117.147107,152.637723 116.05059,148.12679 116.327281,146.916741 C116.603972,145.706691 115.43982,142.809158 115.43982,142.809158 L115.056551,139.341584 C113.082821,135.931632 113.851407,132.795381 113.851407,132.795381 L113.851407,127.465401 C113.851407,127.465401 112.316284,117.12236 112.09698,111.895275 C111.95761,108.54706 111.996552,103.978506 112.041642,101.128305 C112.068287,99.5293109 112.09698,98.4694887 112.09698,98.4694887 L135.769446,96 C135.769446,96 135.744852,97.0968645 136.199855,99.5313688 C136.439654,100.836082 136.814724,102.525624 137.413197,104.639095 C139.112285,110.6914 138.071107,115.202332 138.071107,115.202332 L137.851803,122.847458 C137.851803,122.847458 139.934161,127.965473 139.491455,129.724984 C139.228656,130.769462 139.081562,131.83989 139.052848,132.916798 C139.052848,132.916798 143.715606,144.083002 143.221662,147.336554 C142.727717,150.590105 144.756785,155.699889 144.756785,155.699889 C144.756785,155.699889 145.304019,159.321805 144.756785,160.313717 Z" id="路径" fill="#575988"></path>
                <path d="M131,131.883391 L139,131 C139,131 134.467577,134.835578 131,131.883391 Z" id="路径" fill="#000000" opacity="0.05"></path>
                <path d="M138.505567,123 C138.505567,123 138.786981,125.905903 137,127 C137,127 140.198744,126.499708 138.505567,123 Z" id="路径" fill="#000000" opacity="0.1"></path>
                <path d="M137,115 C137,115 131.342481,119.337551 129.284676,118.978927 C127.226872,118.620304 137,115 137,115 Z" id="路径" fill="#000000" opacity="0.1"></path>
                <path d="M121,133 C121,133 117.120685,134.262404 117.002498,136.485928 C116.884311,138.709453 121,133 121,133 Z" id="路径" fill="#000000" opacity="0.1"></path>
                <path d="M121.924331,156 C121.924331,156 115.502231,157.376828 117.326067,158.314193 C119.149903,159.251558 122.142133,159.99958 122.142133,159.99958 C122.142133,159.99958 124.210232,160.125809 121.924331,156 Z" id="路径" fill="#000000" opacity="0.05"></path>
                <g id="分组" opacity="0.05" transform="translate(112.000000, 98.000000)" fill="#000000">
                    <path d="M5.46740741,62.2070796 C5.13950427,61.9999617 4.92274306,61.6525061 4.8787037,61.2634218 L4.81351852,61.379056 C4.81351852,61.379056 4.21462963,62.8699115 5.24944444,63.5327434 L5.58555556,63.7557522 C5.775,63.720649 5.98074074,63.6938053 6.18037037,63.6421829 C7.0562963,63.4212389 6.50222222,62.8699115 5.46740741,62.2070796 Z" id="路径"></path>
                    <path d="M13.7459259,61.7651917 C13.9211111,61.6 13.915,61.1766962 13.807037,60.6315634 C13.5177778,61.0589971 13.4485185,61.7238938 13.4424074,62.2297935 C13.5096859,62.0547304 13.6131809,61.8963085 13.7459259,61.7651917 L13.7459259,61.7651917 Z" id="路径"></path>
                    <path d="M12.7559259,34.3 C12.5178906,34.9525599 12.3718229,35.6358851 12.322037,36.3297935 C12.4447306,35.8505767 12.6111261,35.3839656 12.8190741,34.9359882 C12.8190741,34.9359882 12.7946296,34.6861357 12.7559259,34.3 Z" id="路径"></path>
                    <path d="M27.4694444,31.400885 C27.514041,31.2032146 27.5338887,31.0006358 27.5285185,30.7979351 C27.4490741,31.2109145 27.392037,31.5929204 27.3512963,31.9274336 C27.3859259,31.7560472 27.4246296,31.580531 27.4694444,31.400885 Z" id="路径"></path>
                    <path d="M12.6011111,53.9268437 C12.6907407,53.7905605 12.7396296,53.3362832 12.7640741,52.700295 C12.5603704,53.1029499 12.4768519,53.7533923 12.4503704,54.2489676 C12.4878515,54.1359189 12.5384532,54.0277861 12.6011111,53.9268437 Z" id="路径"></path>
                    <path d="M13.9516667,64.3380531 C13.5035185,65.5769912 13.2,67.7286136 13.2,67.7286136 L6.61425926,68.500885 C6.61425926,68.500885 6.00314815,67.7286136 5.13944444,65.6864307 C5.06407407,65.5067847 5.00296296,65.3457227 4.95407407,65.199115 C4.55888889,65.3828909 4.40407407,65.7979351 4.92148148,67.0100295 C5.79333333,69.0522124 6.3962963,69.8265487 6.3962963,69.8265487 L12.982037,69.0480826 C12.982037,69.0480826 13.472963,65.5707965 14.1268519,64.9182891 C14.4487037,64.5879056 14.242963,64.420649 13.9516667,64.3380531 Z" id="路径"></path>
                    <path d="M5.24944444,54.4224189 C5.24944444,54.4224189 5.30444444,58.2321534 5.84833333,58.4530973 L5.84833333,58.4530973 C6.12333333,57.8233038 6.30666667,57.2141593 6.05203704,57.1253687 C5.50814815,56.9064897 5.45314815,53.0967552 5.45314815,53.0967552 C5.45314815,53.0967552 4.36333333,48.5684366 4.63833333,47.3542773 C4.91333333,46.140118 3.76648148,43.2141593 3.76648148,43.2141593 L3.38555556,39.7368732 C1.42388889,36.3132743 2.18777778,33.1663717 2.18777778,33.1663717 L2.18777778,27.8141593 C2.18777778,27.8141593 0.662037037,17.4339233 0.444074074,12.1890855 C0.305555556,8.83156342 0.344259259,4.24749263 0.389074074,1.38761062 C0.389074074,0.869321534 0.407407407,0.410914454 0.415555556,0.0247787611 L0.226111111,0.0433628319 C0.226111111,0.0433628319 0.197592593,1.10678466 0.171111111,2.71120944 C0.126296296,5.57109145 0.0875925926,10.1448378 0.226111111,13.5147493 C0.444074074,18.759587 1.96981481,29.1377581 1.96981481,29.1377581 L1.96981481,34.4941003 C1.96981481,34.4941003 1.20592593,37.6410029 3.16759259,41.0625369 L3.54851852,44.5418879 C3.54851852,44.5418879 4.6912963,47.4678466 4.42037037,48.6716814 C4.14944444,49.8755162 5.24944444,54.4224189 5.24944444,54.4224189 Z" id="路径"></path>
                    <path d="M24.637963,67.0100295 C24.1027869,66.2250938 23.7465315,65.3293277 23.595,64.3876106 C22.9227778,65.0070796 23.6948148,67.3920354 24.4098148,68.3356932 C25.1716667,69.3289086 30.8366667,69.9359882 31.9264815,68.1147493 L31.9264815,67.0637168 C30.4638889,68.5442478 25.3590741,67.9495575 24.637963,67.0100295 Z" id="路径"></path>
                    <path d="M32.9164815,60.7719764 C32.6165571,61.2999024 32.3610245,61.8524941 32.1525926,62.4238938 L32.1525926,63.1982301 C32.2768519,62.9153392 32.4540741,62.5374631 32.6985185,62.0935103 C32.8553704,61.8064897 32.9205556,61.30059 32.9368519,60.7244838 C32.9287037,60.7430678 32.9225926,60.759587 32.9164815,60.7719764 Z" id="路径"></path>
                    <path d="M24.972037,61.6412979 C25.1803483,61.2170617 25.3600203,60.7789857 25.5098148,60.3300885 C25.5098148,60.3300885 24.582963,60.5510324 23.1122222,58.7855457 C22.0427778,57.499115 21.9816667,55.0687316 22.1344444,53.4849558 C21.8594444,54.4244838 21.4255556,58.3436578 22.8942593,60.1091445 C23.8598148,61.2654867 24.582963,61.5690265 24.972037,61.6412979 Z" id="路径"></path>
                    <path d="M22.1324074,49.3985251 C22.2283092,50.486601 22.2643527,51.5792469 22.2403704,52.6713864 C22.2682864,52.498708 22.3056903,52.3277439 22.3524074,52.159292 C22.6274074,51.2218289 22.3524074,48.0749263 22.3524074,48.0749263 C22.3524074,48.0749263 22.4074074,45.8654867 21.9714815,45.1489676 C21.5355556,44.4324484 20.6005556,40.3460177 20.6005556,40.3460177 C20.6005556,40.3460177 20.6005556,38.9646018 19.8387037,38.2480826 C19.0768519,37.5315634 18.5859259,34.7150442 18.5859259,34.7150442 C18.1403282,34.0105839 17.9482176,33.1718248 18.042037,32.340413 C18.205,30.9610619 17.1151852,29.4702065 17.1151852,29.4702065 L15.2635185,23.5067847 L13.5218519,19.0362832 L12.54,21.6297935 C12.54,21.6297935 12.5257407,21.9560472 12.5074074,22.4681416 L13.3038889,20.359882 L15.0455556,24.8324484 L16.8972222,30.7938053 C16.8972222,30.7938053 17.987037,32.2846608 17.8240741,33.6660767 C17.7300574,34.4968458 17.9222013,35.335021 18.367963,36.0386431 C18.367963,36.0386431 18.8588889,38.8551622 19.6207407,39.5716814 C20.3825926,40.2882006 20.3968519,41.6696165 20.3968519,41.6696165 C20.3968519,41.6696165 21.3237037,45.7560472 21.7596296,46.4725664 C22.1955556,47.1890855 22.1324074,49.3985251 22.1324074,49.3985251 Z" id="路径"></path>
                </g>
                <path d="M138.894918,46.7822494 L138.446832,49.0182758 L138.473717,50.0125744 L138.49164,50.7479888 L135.98236,51 L135.702306,50.4707765 L135.702306,50.4707765 C135.184767,49.5131341 134.111601,47.563484 133.762094,47.2633616 C133.300566,46.8647258 132.476088,40.6469228 133.466357,41.0157755 C134.069722,41.2545087 134.565326,41.7131528 134.857664,42.3033235 C134.857664,42.3033235 139.773166,42.8875312 138.894918,46.7822494 Z" id="路径" fill="#FFCDD3"></path>
                <path d="M139,50.5957689 L137.20145,51 L137,50.1880227 L137,50.1880227 C137.257857,49.6080389 137.994359,48.2898939 138.985496,49.485012 L139,50.5957689 Z" id="路径" fill="#000000" opacity="0.1"></path>
                <path d="M139,50.4327084 L135.287335,51 L135.2092,50.6392944 L135,49.673587 C135,49.673587 136.464398,48.4012798 138.589162,49.3538706 L138.773157,49.845742 L139,50.4327084 Z" id="路径" fill="#DCE6F2"></path>
                <path d="M90,47.1705358 L86.4651232,49 C86.4651232,49 86.32986,48.7312162 86.1450004,48.3497165 C85.8068425,47.671254 85.3063689,46.6481413 85.1688513,46.281815 C84.9591935,45.7182359 83.4803164,45.0072593 83.4803164,45.0072593 C79.7763606,41.6019414 84.1904479,38.6756656 84.1904479,38.6756656 C86.5259916,34.1561953 89.1320615,40.2103347 89.1320615,40.2103347 C89.1320615,40.2103347 89.4927632,43.4010591 89.2380176,43.6156526 C88.983272,43.8302462 88.983272,44.6994585 88.983272,44.6994585 C89.3213336,45.3266908 89.6063075,45.9790833 89.8354298,46.650309 C89.941386,46.9754507 90,47.1705358 90,47.1705358 Z" id="路径" fill="#FFCDD3"></path>
                <path d="M90,45.4569805 L86.3321637,47 C86.3321637,47 86.1918129,46.7733004 86,46.4515333 C86.5169591,46.1133122 88.3555556,44.9487347 88.9590643,45.0017532 C89.2477129,45.0297149 89.5391988,45.0352265 89.8292398,45.0182072 C89.9391813,45.2924405 90,45.4569805 90,45.4569805 Z" id="路径" fill="#000000" opacity="0.1"></path>
                <path d="M90,46.6628056 L86.1399672,49 L86.0634226,47.9791565 L86,47.264566 C86,47.264566 88.2351011,44.911253 88.8955714,45.0025917 C89.2298333,45.0631008 89.5695106,45.0631008 89.9037726,45.0025917 L89.9475123,45.8568765 L90,46.6628056 Z" id="路径" fill="#DCE6F2"></path>
                <path d="M129,59.8417161 C129,59.8417161 112.261156,61.7086922 115.389628,60.7020737 C117.565199,60.0008822 118.435427,58.6307626 118.613824,57.1122313 C118.761763,55.8410528 118.431076,54.4666314 117.991611,53.2836396 C117.596303,52.2395475 117.094801,51.2378306 116.494818,50.2938966 C116.494818,50.2938966 129.291527,43.3336029 126.720002,49.6486284 C126.325577,50.6058014 126.081274,51.6168989 125.995536,52.6469749 C125.91723,53.6699488 126.02856,54.698461 126.324048,55.6818866 C126.808693,57.2869569 127.735179,58.7271997 129,59.8417161 L129,59.8417161 Z" id="路径" fill="#FFCDD3"></path>
                <path d="M126.679663,49.3897788 C126.306679,50.2510482 126.075655,51.160839 125.994578,52.0877068 C124.854826,52.9876613 123.603979,52.9295997 121.999273,52.9295997 C120.764885,52.9295997 119.400886,53.2102307 118.415432,52.6509041 C118.041612,51.7114246 117.56737,50.8100744 117,49.9607177 C117,49.9607177 129.101122,43.6978088 126.679663,49.3897788 Z" id="路径" fill="#000000" opacity="0.1"></path>
                <circle id="椭圆形" fill="#FFCDD3" cx="122" cy="48" r="7"></circle>
                <path d="M129,59.846498 C129,59.846498 112.261156,61.7057664 115.389628,60.7033037 C117.565199,60.0050071 118.435427,58.640544 118.613824,57.1282819 C119.447068,56.2414879 121.122257,55.5988837 122.196989,55.2583034 C123.182555,54.9316066 124.246855,54.9143914 125.242789,55.209037 C125.633515,55.3237233 126.005115,55.4940288 126.345803,55.7145524 C126.826184,57.306688 127.74484,58.736815 129,59.846498 Z" id="路径" fill="#000000" opacity="0.1"></path>
                <path d="M139,50.0760715 L135.082447,51 L135,50.412531 C136.103723,48.9972648 137.494681,48.8263647 138.760638,49.1227696 L139,50.0760715 Z" id="路径" fill="#000000" opacity="0.1"></path>
                <path d="M90,47.510274 L86.0777778,49 L86,48.3493151 C87.4022222,47.7123288 89.7511111,47.0565068 89.9555556,47 L90,47.510274 Z" id="路径" fill="#000000" opacity="0.1"></path>
                <path d="M135,99.906303 C129.185119,100.97746 120.909646,102.374521 119.59642,101.907315 C118.507593,101.519875 115.028421,101.560898 112,101.679409 C112.025367,99.9085821 112.052685,98.7348679 112.052685,98.7348679 L134.590227,96 C134.590227,96 134.566811,97.2101791 135,99.906303 Z" id="路径" fill="#000000" opacity="0.1"></path>
                <path d="M143,97.9737055 C143,97.9737055 122.715311,101.439555 120.53634,100.779296 C118.357369,100.119036 107.183424,100.834832 107.183424,100.834832 C102.153598,104.187553 104.254011,99.2386893 104.254011,99.2386893 C104.254011,99.2386893 103.811601,96.6552427 104.419397,94.5654483 C104.824827,93.0325176 105.101425,91.4686959 105.246331,89.8901504 C105.246331,89.8901504 105.136763,86.5991356 105.744559,85.8216334 C106.352355,85.0441311 107.069721,79.5522502 107.069721,79.5522502 C107.069721,79.5522502 107.623766,75.8128346 107.567948,74.988024 C107.51213,74.1632134 107.733335,71.8533324 107.733335,71.8533324 L108.454835,68.0110726 C104.320165,67.4618845 91.7094228,59.7629668 91.7094228,59.7629668 C91.1016264,57.1774633 86.4025743,51.1240529 86.4025743,51.1240529 C86.3342491,50.6153539 86.2044461,50.1167227 86.0159827,49.6389825 C85.6831418,48.758636 90.6592167,47 90.6592167,47 C90.6592167,47 94.3618134,51.5086903 95.1349967,52.7181382 C95.9081799,53.9275862 98.5626378,56.1839882 98.5626378,56.1839882 C98.9747035,56.141838 99.3909677,56.1960733 99.7782307,56.3423683 C99.8009714,56.3423683 99.8195774,56.3547096 99.8423181,56.3608802 C99.8650587,56.3670509 99.8423181,56.3608802 99.8423181,56.3608802 C101.082719,56.790769 102.32312,57.7739597 102.32312,57.7739597 C104.313963,57.6649448 105.694943,59.0389435 105.694943,59.0389435 C105.694943,59.0389435 107.969011,58.709842 108.347334,59.0944794 C108.725656,59.4791168 110.668951,59.0944794 110.668951,59.0944794 C110.668951,59.0944794 112.603976,55.0239055 113.875387,56.2148414 C115.146798,57.4057774 120.540474,57.342014 120.540474,57.342014 C121.259907,56.3917335 123.008872,55.7109048 124.102492,55.3591776 C125.039026,55.0454648 126.050376,55.0289337 126.996761,55.3118693 C127.404707,55.4274905 127.789416,55.6126091 128.133795,55.8590005 L131.406386,59.0471711 C131.406386,59.0471711 132.347024,57.8377231 132.23332,57.5621006 C132.119617,57.2864781 133.339344,57.0684484 133.339344,57.0684484 C133.339344,57.0684484 134.941529,56.5727393 135.549325,56.4081886 C136.157122,56.2436378 136.715302,56.897727 136.764918,56.9553198 C136.744245,56.8853857 136.32871,55.5545816 136.489963,54.5384808 C136.651215,53.52238 135.826348,52.5577012 135.826348,52.5577012 C137.761374,47.8268675 142.127585,51.7884265 142.127585,51.7884265 C142.127585,51.7884265 142.625812,54.37393 142.183403,55.3632914 C141.740993,56.3526527 142.625812,58.4486177 142.514176,58.9916352 C142.40254,59.5346526 142.735381,60.4767056 142.735381,61.5216028 C142.735381,62.5665 142.183403,64.5472795 141.850562,65.4296829 C141.517721,66.3120862 138.854994,68.2784676 138.854994,68.2784676 C138.854994,68.2784676 138.68754,71.4131592 137.527765,73.2273311 C136.36799,75.041503 137.085355,81.2491797 137.085355,81.2491797 C137.085355,81.2491797 138.191379,86.0890283 139.566157,87.6255208 C140.940935,89.1620134 143,97.9737055 143,97.9737055 Z" id="路径" fill="#656691"></path>
                <path d="M110.898998,63 C110.898998,63 110.481417,60.847468 110.102186,60.6497865 C109.724005,60.4109191 109.355753,60.1279756 109,59.8029286 L109.244299,59 C109.244299,59 110.671743,59.6711409 110.898998,60.3886516 C111.126253,61.1061623 110.898998,63 110.898998,63 Z" id="路径" fill="#000000" opacity="0.1"></path>
                <path d="M102,58.1575456 C101.869297,58.60199 96,59 96,59 L98.9593095,57 L98.9593095,57 L99.0332922,57.0165837 C99.0332922,57.0165837 99.0332922,57.0165837 99.0332922,57.0165837 C100.532676,57.3648425 102,58.1575456 102,58.1575456 Z" id="路径" fill="#000000" opacity="0.1"></path>
                <circle id="椭圆形" fill="#575988" cx="87.5" cy="50.5" r="1"></circle>
                <circle id="椭圆形" fill="#575988" cx="87.5" cy="50.5" r="1"></circle>
                <circle id="椭圆形" fill="#575988" cx="87.5" cy="50.5" r="1"></circle>
                <circle id="椭圆形" fill="#575988" cx="87.5" cy="52.5" r="1"></circle>
                <circle id="椭圆形" fill="#575988" cx="140.5" cy="52.5" r="1"></circle>
                <circle id="椭圆形" fill="#575988" cx="140.5" cy="52.5" r="1"></circle>
                <circle id="椭圆形" fill="#575988" cx="140.5" cy="54.5" r="1"></circle>
                <path d="M113,76.0002076 C112.950714,75.9320866 125.358458,92.6568861 135,82.9924967 C135,82.9881018 119.774561,85.19654 113,76.0002076 Z" id="路径" fill="#000000" opacity="0.1"></path>
                <path d="M105,86 C105,86 112.240964,86.1737247 113,87.9735131 L113,89.8480032 C112.581415,90.0506656 112.071196,90.0506656 111.65261,89.8480032 C110.921687,89.5005537 106.544177,87.5895814 105,88.5085854 L105,86 Z" id="路径" fill="#000000" opacity="0.1"></path>
                <path d="M105,86 C105,86 112.241995,86.1712508 113,87.9730273 L113,89.8476765 C112.581142,90.0507745 112.070827,90.0507745 111.651969,89.8476765 C110.92336,89.5069968 106.543307,87.5831586 105,88.5086414 L105,86 Z" id="路径" fill="#656691"></path>
                <path d="M109,68 C109,68 109.920591,70.3526805 112.120646,73.3167922 C113.48081,75.1304986 115.128783,76.7122247 117,78 C117,78 109.133742,69.0988037 109,68 Z" id="路径" fill="#000000" opacity="0.1"></path>
                <path d="M107,61 C107,61 108.115242,66.9770115 111,69 L107,61 Z" id="路径" fill="#000000" opacity="0.1"></path>
                <path d="M106.104309,61.0015067 C106.075091,60.9120048 105.06416,64.8314431 110,67 C109.998052,67 107.90217,66.3194125 106.104309,61.0015067 Z" id="路径" fill="#000000" opacity="0.1"></path>
                <path d="M137.002274,57.002815 C136.902331,57.002815 140.125497,58.3692163 141,59 C141,59.004984 138.896197,56.912942 137.002274,57.002815 Z" id="路径" fill="#000000" opacity="0.1"></path>
                <path d="M120.497148,53.8880731 C120.590445,54.228351 120.704476,54.6018267 121.011322,54.7802652 C121.205305,54.8735778 121.418085,54.921135 121.633306,54.9192811 C123.64439,55.0437731 125.736332,55.1267677 127.59814,54.3569926 C127.944734,54.2335117 128.255813,54.0269171 128.504165,53.7552817 C128.833817,53.350683 128.898088,52.8008436 129.030778,52.302876 C129.292012,51.3173149 129.847652,50.4354972 130.249869,49.4997329 C130.923789,47.9132959 131.149689,46.1721791 130.902953,44.4661097 C130.851136,43.9420225 130.678691,43.4370764 130.399145,42.9908804 C129.864238,42.2294048 128.893942,41.9202499 128.186952,41.3143892 C127.479963,40.7085286 127.027988,39.7810638 126.204894,39.3245934 C125.462659,38.9096203 124.546268,38.961492 123.716955,39.1025828 C122.072083,39.3832917 120.495843,39.975537 119.072802,40.8475445 C118.595947,41.1421754 118.071407,41.4803785 117.519914,41.3766352 C117.038912,41.2853411 116.690601,40.8807424 116.379608,40.501042 C115.98573,41.4057957 115.815751,42.3922859 115.884094,43.3768054 C115.905231,43.5210585 115.900315,43.6679377 115.869581,43.8104522 C115.801387,43.9829725 115.696712,44.1386897 115.562735,44.2669226 C115.067221,44.8437351 114.756228,45.7566759 115.247596,46.3417879 C115.454924,46.5949215 115.788723,46.7339374 115.996051,46.9912207 C116.369242,47.4559906 116.242772,48.1220223 116.234479,48.7154338 C116.212304,48.9215023 116.263715,49.1287757 116.379608,49.3005459 C116.566204,49.5267062 116.906222,49.54538 117.194408,49.4955832 C117.482595,49.4457864 117.777001,49.3482678 118.061041,49.4125886 C118.370722,49.5158029 118.636595,49.7204769 118.815715,49.9935509 C119.744546,51.1658498 120.10737,52.4750898 120.497148,53.8880731 Z" id="路径" fill="#2D293D"></path>
                <g id="分组" opacity="0.1" transform="translate(115.000000, 39.000000)" fill="#000000">
                    <path d="M13.8332353,13.9966197 C13.586616,14.2916442 13.2777062,14.5160276 12.9335294,14.6501408 C11.0805882,15.4929577 9.00735294,15.3960563 7.01029412,15.2585915 C6.79662866,15.2624536 6.58510373,15.2115173 6.39264706,15.1098592 C6.09,14.9138028 5.98088235,14.5104225 5.88205882,14.1408451 C5.495,12.5949296 5.13470588,11.1842254 4.21235294,9.89971831 C4.03448213,9.60313132 3.77046311,9.38083392 3.46294118,9.26873239 C3.18088235,9.19887324 2.88852941,9.30478873 2.60235294,9.35887324 C2.31617647,9.41295775 1.98470588,9.39267606 1.79323529,9.14704225 C1.67815048,8.96048187 1.62709743,8.73536127 1.64911765,8.5115493 C1.64911765,7.86704225 1.78088235,7.14140845 1.41235294,6.63887324 C1.20647059,6.3571831 0.881176471,6.2084507 0.667058824,5.93352113 C0.362352941,5.53464789 0.370588235,4.99605634 0.541470588,4.49352113 C0.191470588,5.10197183 0.0391176471,5.88394366 0.448823529,6.41352113 C0.654705882,6.69070423 0.986176471,6.83943662 1.19205882,7.12112676 C1.56058824,7.62366197 1.43705882,8.34929577 1.42882353,8.99380282 C1.40680331,9.21761479 1.45785636,9.44273539 1.57294118,9.62929577 C1.75823529,9.87492958 2.09588235,9.89521127 2.38205882,9.84112676 C2.66823529,9.78704225 2.96058824,9.68112676 3.24264706,9.75098592 C3.55016899,9.86308744 3.81418801,10.0853848 3.99205882,10.3819718 C4.91441176,11.6664789 5.27470588,13.0861972 5.66176471,14.6230986 C5.75441176,14.9904225 5.86764706,15.3960563 6.17235294,15.5921127 C6.36480961,15.6937709 6.57633454,15.7447071 6.79,15.7408451 C8.78705882,15.8783099 10.8644118,15.9661972 12.7132353,15.1323944 C13.0574121,14.9982811 13.3663219,14.7738978 13.6129412,14.4788732 C13.7377785,14.3046031 13.8339219,14.1078585 13.8970588,13.8974648 C13.8764706,13.9312676 13.8558824,13.9650704 13.8332353,13.9966197 Z" id="路径"></path>
                    <path d="M1.08705882,3.54929577 C1.17824166,3.44555759 1.24839761,3.32192503 1.29294118,3.18647887 C1.32346083,3.03169317 1.3283422,2.87216698 1.30735294,2.71549296 C1.25309815,1.83723451 1.35733492,0.955876237 1.61411765,0.121690141 L1.57911765,0.0743661972 C1.18782952,1.05697222 1.019029,2.12844615 1.08705882,3.19774648 C1.09734119,3.31465934 1.09734119,3.43238291 1.08705882,3.54929577 Z" id="路径"></path>
                </g>
                <path d="M119,56.2458021 C119,56.2458021 128.1759,58.0963411 129,56" id="路径" fill="#000000" opacity="0.1"></path>
                <path d="M135,53 C135,53 139.917595,53 141,55" id="路径" fill="#000000" opacity="0.1"></path>
            </g>
        </g>
    </g>
</svg>