<svg width="16" height="16" xmlns="http://www.w3.org/2000/svg"><path d="M5.635 9.179H1.15a1.1 1.1 0 00-.816.335 1.11 1.11 0 00-.334.817v4.515c0 .322.111.595.334.816.222.223.492.334.816.334h4.487c.322 0 .598-.111.828-.334a1.1 1.1 0 00.34-.816V10.33a1.1 1.1 0 00-.34-.817 1.158 1.158 0 00-.83-.335zm0-8.242H1.15a1.11 1.11 0 00-.816.336A1.102 1.102 0 000 2.09v4.497c0 .322.111.6.334.828.222.23.492.344.816.344h4.487c.322 0 .598-.113.828-.344a1.13 1.13 0 00.34-.828V2.09a1.1 1.1 0 00-.34-.819 1.156 1.156 0 00-.83-.334zm8.24 8.242H9.388c-.32 0-.597.11-.826.335a1.1 1.1 0 00-.343.819v4.515c0 .322.115.595.343.818.23.223.504.334.826.334h4.487c.32 0 .594-.111.817-.334a1.12 1.12 0 00.332-.818V10.33c0-.322-.11-.596-.332-.818a1.114 1.114 0 00-.817-.334zm1.777-5.666L12.482.34a1.11 1.11 0 00-.815-.34c-.314 0-.586.113-.814.342L7.672 3.52a1.135 1.135 0 00-.348.82c-.005.32.106.592.334.82l3.171 3.172c.229.228.502.342.828.342.322 0 .598-.117.824-.344l3.181-3.177a1.1 1.1 0 00.338-.82 1.144 1.144 0 00-.348-.82z" fill="#EB4944"/></svg>