<?xml version="1.0" encoding="UTF-8"?>
<svg width="14px" height="16px" viewBox="0 0 14 16" version="1.1" xmlns="http://www.w3.org/2000/svg" xmlns:xlink="http://www.w3.org/1999/xlink">
    <!-- Generator: Sketch 64 (93537) - https://sketch.com -->
    <title>新潮-定位</title>
    <desc>Created with Sketch.</desc>
    <g id="页面-1" stroke="none" stroke-width="1" fill="none" fill-rule="evenodd">
        <g id="竞媒比对-初始界面" transform="translate(-209.000000, -164.000000)">
            <g id="说明" transform="translate(199.000000, 156.000000)">
                <g id="-mockplus-" transform="translate(10.000000, 8.000000)">
                    <g id="标签/新潮分众定位样式">
                        <g id="新潮-定位">
                            <path d="M13.3585119,4 C13.0094554,3.181815 12.509454,2.50908759 11.8585095,1.92727035 C11.2075651,1.34545311 10.5094502,0.863634672 9.66038692,0.52727182 C8.81132896,0.190908968 7.90566713,0 6.96227529,0 C6.00944299,0 5.11322163,0.145454395 4.26416366,0.52727182 C3.4151057,0.863634672 2.66038692,1.34545311 2.06604104,1.92727035 C1.47170047,2.50908759 0.905661827,3.22727008 0.547170097,4 C0.198113525,4.81817758 0,5.6909043 0,6.55454579 C0,7.85454552 0.349056573,9.06363508 0.952832303,10.3090945 C1.45283369,11.2727297 2.15094684,12.2363717 3.05660336,13.1545415 C4.55660576,14.6999957 6.16038781,15.6636308 6.60377295,15.9 C6.70754676,16 6.90566082,16 7,16 C7.15094358,16 7.30188787,15.9545454 7.39622705,15.9 C7.84905796,15.6545456 9.44339424,14.6909104 10.9433966,13.1545415 C11.7924546,12.2363597 12.5471734,11.2727246 13.0471677,10.3090945 C13.6509417,9.10000495 14,7.80000521 14,6.55454579 C13.9056603,5.69090941 13.754716,4.81817758 13.3584889,4 L13.3585119,4 Z" id="路径" fill="#312F2F" fill-rule="nonzero"></path>
                            <circle id="椭圆形" fill="#FFFFFF" cx="7" cy="7" r="3"></circle>
                        </g>
                    </g>
                </g>
            </g>
        </g>
    </g>
</svg>