<svg width="16" height="16" xmlns="http://www.w3.org/2000/svg"><path d="M9.41 11.52a4.63 4.63 0 01-4.627-4.627A4.638 4.638 0 019.41 2.267a4.63 4.63 0 014.627 4.626c-.014 2.56-2.08 4.627-4.627 4.627zm-6.6-4.613a6.56 6.56 0 001.027 3.533l-1.04 1.04-.947-.947a.99.99 0 10-1.4 1.4l.947.947L.29 13.987a.99.99 0 101.4 1.4l1.107-1.107.853.853a.99.99 0 101.4-1.4l-.853-.853.946-.947a6.587 6.587 0 004.267 1.574c3.64 0 6.6-2.96 6.587-6.587 0-3.64-2.96-6.587-6.587-6.587-3.64-.026-6.6 2.934-6.6 6.574z" fill="#FF8AC7"/></svg>