<?xml version="1.0" encoding="UTF-8"?>
<svg width="14px" height="16px" viewBox="0 0 18 22" version="1.1" xmlns="http://www.w3.org/2000/svg" xmlns:xlink="http://www.w3.org/1999/xlink">
    <!-- Generator: Sketch 64 (93537) - https://sketch.com -->
    <title>新潮-定位</title>
    <desc>Created with Sketch.</desc>
    <g id="页面-1" stroke="none" stroke-width="1" fill="none" fill-rule="evenodd">
        <g id="竞媒比对-搜索之后" transform="translate(-214.000000, -475.000000)">
            <g id="地图" transform="translate(0.000000, 140.000000)">
                <g id="-mockplus-dup-|E871B99B-5337-4478-8E08-991F6E7AEAEF|定位/新潮定位备份" transform="translate(214.000000, 335.000000)">
                    <g id="定位/新潮定位备份">
                        <g id="新潮-定位">
                            <path d="M17.1752296,5.5 C16.7264426,4.37499563 16.0835837,3.44999544 15.2466551,2.64999673 C14.4097266,1.84999803 13.5121502,1.18749767 12.4204975,0.724998753 C11.3288515,0.262499831 10.1644292,0 8.95149681,0 C7.7264267,0 6.57414209,0.199999793 5.48249614,0.724998753 C4.39085019,1.18749767 3.42049747,1.84999803 2.65633848,2.64999673 C1.89218632,3.44999544 1.16442235,4.43749637 0.703504411,5.5 C0.254717389,6.62499418 0,7.82499341 0,9.01250046 C0,10.8000001 0.448787022,12.4624982 1.2250701,14.175005 C1.86792903,15.5 2.76550308,16.8250111 3.9299186,18.0874946 C5.85849312,20.212494 7.92049861,21.5374924 8.49056522,21.8625 C8.62398869,22 8.87870676,22 9,22 C9.19407032,22 9.38814154,21.9375 9.50943478,21.8625 C10.091646,21.5250002 12.1415069,20.2000019 14.0700814,18.0874946 C15.1617273,16.8249947 16.1320801,15.5 16.7749299,14.175005 C17.5512107,12.5125068 18,10.7250072 18,9.01250046 C17.8787061,7.82500044 17.6846349,6.62499418 17.1752001,5.5 L17.1752296,5.5 Z" id="路径" fill="#EE4844" fill-rule="nonzero"></path>
                            <text id="0" font-family="PingFangSC-Regular, PingFang SC" font-size="12" font-weight="normal" fill="#FFFFFF">
                                <tspan x="5.4" y="14">2</tspan>
                            </text>
                        </g>
                    </g>
                </g>
            </g>
        </g>
    </g>
</svg>